# 3ds Max Wavefront OBJ Exporter v0.97b - (c)2007 guruware
# File Created: 13.01.2020 00:33:26

mtllib car1.mtl

#
# object Car_04
#

v  227.3186 8.0626 146.2622
v  227.3186 36.4895 146.2622
v  227.3186 36.4895 34.0836
v  227.3186 8.0626 34.0836
v  396.5028 8.0626 146.2622
v  462.8379 8.0626 146.2622
v  469.4024 32.3207 146.2622
v  396.5027 44.2844 146.2622
v  462.8379 8.0626 34.0836
v  469.4024 32.3207 34.0836
v  277.7765 8.0626 34.0836
v  277.7765 44.2844 34.0836
v  277.7765 44.2844 146.2622
v  396.5028 8.0626 34.0836
v  277.7765 8.0626 146.2622
v  396.5028 44.2844 34.0836
v  284.1914 87.1507 146.2622
v  377.8780 87.1508 146.2622
v  377.8780 87.1508 34.0836
v  284.1914 87.1507 34.0836
v  434.5964 17.3577 140.2975
v  435.6014 11.9707 140.2975
v  418.9351 11.9707 140.2975
v  434.5964 17.3577 150.7958
v  435.6014 11.9707 150.7958
v  418.9351 11.9707 150.7958
v  431.7023 22.0949 140.2975
v  431.7023 22.0949 150.7958
v  427.2683 25.6109 140.2975
v  427.2683 25.6109 150.7958
v  421.8292 27.4818 140.2975
v  421.8292 27.4818 150.7958
v  416.0410 27.4818 140.2975
v  416.0410 27.4818 150.7958
v  410.6020 25.6109 140.2975
v  410.6019 25.6109 150.7958
v  406.1680 22.0949 140.2975
v  406.1680 22.0949 150.7958
v  403.2739 17.3577 140.2975
v  403.2739 17.3577 150.7958
v  402.2688 11.9707 140.2975
v  402.2688 11.9707 150.7958
v  403.2739 6.5838 140.2975
v  403.2739 6.5838 150.7958
v  406.1680 1.8466 140.2975
v  406.1680 1.8466 150.7958
v  410.6020 -1.6695 140.2975
v  410.6020 -1.6695 150.7958
v  416.0410 -3.5403 140.2975
v  416.0410 -3.5403 150.7958
v  421.8292 -3.5403 140.2975
v  421.8292 -3.5403 150.7958
v  427.2683 -1.6695 140.2975
v  427.2683 -1.6695 150.7958
v  431.7023 1.8466 140.2975
v  431.7023 1.8466 150.7958
v  434.5964 6.5838 140.2975
v  434.5964 6.5838 150.7958
v  434.5964 17.3577 27.9359
v  435.6015 11.9707 27.9359
v  418.9351 11.9707 27.9359
v  434.5964 17.3577 38.4341
v  435.6015 11.9707 38.4341
v  418.9351 11.9707 38.4341
v  431.7023 22.0949 27.9359
v  431.7023 22.0949 38.4341
v  427.2683 25.6109 27.9359
v  427.2683 25.6109 38.4341
v  421.8292 27.4818 27.9359
v  421.8292 27.4818 38.4341
v  416.0411 27.4818 27.9359
v  416.0411 27.4818 38.4341
v  410.6020 25.6109 27.9359
v  410.6020 25.6109 38.4341
v  406.1680 22.0949 27.9359
v  406.1680 22.0949 38.4341
v  403.2739 17.3577 27.9359
v  403.2739 17.3577 38.4341
v  402.2688 11.9707 27.9359
v  402.2688 11.9707 38.4341
v  403.2739 6.5838 27.9359
v  403.2739 6.5838 38.4341
v  406.1680 1.8466 27.9359
v  406.1680 1.8466 38.4341
v  410.6020 -1.6695 27.9359
v  410.6020 -1.6695 38.4341
v  416.0411 -3.5403 27.9359
v  416.0411 -3.5403 38.4341
v  421.8292 -3.5403 27.9359
v  421.8292 -3.5403 38.4341
v  427.2683 -1.6695 27.9359
v  427.2683 -1.6695 38.4341
v  431.7023 1.8466 27.9359
v  431.7023 1.8466 38.4341
v  434.5964 6.5838 27.9359
v  434.5964 6.5838 38.4341
v  296.9332 16.5496 142.0138
v  297.9383 11.1627 142.0138
v  281.2719 11.1627 142.0138
v  296.9332 16.5496 152.5120
v  297.9383 11.1627 152.5120
v  281.2719 11.1627 152.5120
v  294.0391 21.2868 142.0138
v  294.0391 21.2868 152.5120
v  289.6051 24.8029 142.0138
v  289.6051 24.8029 152.5120
v  284.1660 26.6738 142.0138
v  284.1660 26.6738 152.5120
v  278.3779 26.6738 142.0138
v  278.3779 26.6738 152.5120
v  272.9388 24.8029 142.0138
v  272.9388 24.8029 152.5120
v  268.5048 21.2868 142.0138
v  268.5048 21.2868 152.5120
v  265.6107 16.5496 142.0138
v  265.6107 16.5496 152.5120
v  264.6056 11.1627 142.0138
v  264.6056 11.1627 152.5120
v  265.6107 5.7758 142.0138
v  265.6107 5.7758 152.5120
v  268.5048 1.0386 142.0138
v  268.5048 1.0386 152.5120
v  272.9388 -2.4775 142.0138
v  272.9388 -2.4775 152.5120
v  278.3779 -4.3484 142.0138
v  278.3779 -4.3484 152.5120
v  284.1660 -4.3484 142.0138
v  284.1660 -4.3484 152.5120
v  289.6051 -2.4775 142.0138
v  289.6051 -2.4775 152.5120
v  294.0391 1.0386 142.0138
v  294.0391 1.0386 152.5120
v  296.9332 5.7758 142.0138
v  296.9332 5.7758 152.5120
v  296.9332 16.5496 29.6521
v  297.9383 11.1627 29.6521
v  281.2719 11.1627 29.6521
v  296.9332 16.5496 40.1503
v  297.9383 11.1627 40.1503
v  281.2719 11.1627 40.1503
v  294.0391 21.2868 29.6521
v  294.0391 21.2868 40.1503
v  289.6051 24.8029 29.6521
v  289.6051 24.8029 40.1503
v  284.1660 26.6738 29.6521
v  284.1660 26.6738 40.1503
v  278.3779 26.6738 29.6521
v  278.3779 26.6738 40.1503
v  272.9388 24.8029 29.6521
v  272.9388 24.8029 40.1503
v  268.5048 21.2868 29.6521
v  268.5048 21.2868 40.1503
v  265.6107 16.5496 29.6521
v  265.6107 16.5496 40.1503
v  264.6056 11.1627 29.6521
v  264.6056 11.1627 40.1503
v  265.6107 5.7758 29.6521
v  265.6107 5.7758 40.1503
v  268.5048 1.0386 29.6521
v  268.5048 1.0386 40.1503
v  272.9388 -2.4775 29.6521
v  272.9388 -2.4775 40.1503
v  278.3779 -4.3484 29.6521
v  278.3779 -4.3484 40.1503
v  284.1660 -4.3484 29.6521
v  284.1660 -4.3484 40.1503
v  289.6051 -2.4775 29.6521
v  289.6051 -2.4775 40.1503
v  294.0391 1.0386 29.6521
v  294.0391 1.0386 40.1503
v  296.9332 5.7758 29.6521
v  296.9332 5.7758 40.1503
# 172 vertices

vn -1.0000 -0.0000 -0.0000
vn -0.0000 0.0000 1.0000
vn 0.9653 -0.2612 0.0000
vn 0.0000 -0.0000 -1.0000
vn -0.1527 0.9883 -0.0000
vn 0.0000 -1.0000 0.0000
vn 0.0000 0.0000 -1.0000
vn 0.1619 0.9868 0.0000
vn -0.0000 1.0000 -0.0000
vn -0.9890 0.1480 -0.0000
vn 0.9172 0.3985 0.0000
vn 0.9830 0.1834 0.0000
vn 0.8534 0.5213 0.0000
vn 0.6213 0.7835 0.0000
vn 0.3253 0.9456 0.0000
vn -0.3253 0.9456 -0.0000
vn -0.6213 0.7835 -0.0000
vn -0.8534 0.5213 -0.0000
vn -0.9830 0.1834 -0.0000
vn -0.9830 -0.1834 -0.0000
vn -0.8534 -0.5213 -0.0000
vn -0.6213 -0.7835 -0.0000
vn -0.3253 -0.9456 -0.0000
vn 0.3253 -0.9456 0.0000
vn 0.6213 -0.7835 0.0000
vn 0.8534 -0.5213 0.0000
vn 0.9830 -0.1834 0.0000
# 27 vertex normals

vt 0.9908 0.9245 0.0000
vt 0.9908 0.9922 0.0000
vt 0.6759 0.9922 0.0000
vt 0.6759 0.9245 0.0000
vt 0.4841 0.2118 0.0000
vt 0.6703 0.2118 0.0000
vt 0.6888 0.2695 0.0000
vt 0.4841 0.2980 0.0000
vt 0.0092 0.4314 0.0000
vt 0.0092 0.4157 0.0000
vt 0.3241 0.4157 0.0000
vt 0.3241 0.4314 0.0000
vt 0.5471 0.0078 0.0000
vt 0.6888 0.0078 0.0000
vt 0.6888 0.0755 0.0000
vt 0.5471 0.0941 0.0000
vt 0.6574 0.4157 0.0000
vt 0.6574 0.5359 0.0000
vt 0.3426 0.5359 0.0000
vt 0.3426 0.4157 0.0000
vt 0.3241 0.5893 0.0000
vt 0.0092 0.5893 0.0000
vt 0.1509 0.2980 0.0000
vt 0.1509 0.2118 0.0000
vt 0.2139 0.0941 0.0000
vt 0.0092 0.0656 0.0000
vt 0.0276 0.0078 0.0000
vt 0.2139 0.0078 0.0000
vt 0.6574 0.8186 0.0000
vt 0.6574 0.9922 0.0000
vt 0.3426 0.9922 0.0000
vt 0.3426 0.8186 0.0000
vt 0.3241 0.8720 0.0000
vt 0.0092 0.8720 0.0000
vt 0.6574 0.5512 0.0000
vt 0.6574 0.7742 0.0000
vt 0.3426 0.7742 0.0000
vt 0.3426 0.5512 0.0000
vt 0.0092 0.2795 0.0000
vt 0.0092 0.2118 0.0000
vt 0.3241 0.9922 0.0000
vt 0.0092 0.9922 0.0000
vt 0.4318 0.4001 0.0000
vt 0.1689 0.4001 0.0000
vt 0.5291 0.1961 0.0000
vt 0.2661 0.1961 0.0000
vt 0.6787 0.6162 0.0000
vt 0.6759 0.6034 0.0000
vt 0.7227 0.6034 0.0000
vt 0.8653 0.4887 0.0000
vt 0.8358 0.4887 0.0000
vt 0.8358 0.4759 0.0000
vt 0.8653 0.4759 0.0000
vt 0.8786 0.7057 0.0000
vt 0.8347 0.6929 0.0000
vt 0.8815 0.6929 0.0000
vt 0.6868 0.6275 0.0000
vt 0.8653 0.5000 0.0000
vt 0.8358 0.5000 0.0000
vt 0.8705 0.7170 0.0000
vt 0.6993 0.6359 0.0000
vt 0.7400 0.4507 0.0000
vt 0.7695 0.4507 0.0000
vt 0.7695 0.4613 0.0000
vt 0.7400 0.4613 0.0000
vt 0.8581 0.7254 0.0000
vt 0.7145 0.6403 0.0000
vt 0.7400 0.4378 0.0000
vt 0.7695 0.4378 0.0000
vt 0.8428 0.7298 0.0000
vt 0.7308 0.6403 0.0000
vt 0.7400 0.4240 0.0000
vt 0.7695 0.4240 0.0000
vt 0.8266 0.7298 0.0000
vt 0.7461 0.6359 0.0000
vt 0.7400 0.4110 0.0000
vt 0.7695 0.4110 0.0000
vt 0.8113 0.7254 0.0000
vt 0.7585 0.6275 0.0000
vt 0.7400 0.4005 0.0000
vt 0.7695 0.4005 0.0000
vt 0.7988 0.7170 0.0000
vt 0.7666 0.6162 0.0000
vt 0.8358 0.4249 0.0000
vt 0.8653 0.4249 0.0000
vt 0.8653 0.4362 0.0000
vt 0.8358 0.4362 0.0000
vt 0.7907 0.7057 0.0000
vt 0.7695 0.6034 0.0000
vt 0.8358 0.4120 0.0000
vt 0.8653 0.4120 0.0000
vt 0.7879 0.6929 0.0000
vt 0.7666 0.5906 0.0000
vt 0.8358 0.3992 0.0000
vt 0.8653 0.3992 0.0000
vt 0.7907 0.6801 0.0000
vt 0.7585 0.5793 0.0000
vt 0.8358 0.3879 0.0000
vt 0.8653 0.3879 0.0000
vt 0.7988 0.6688 0.0000
vt 0.7461 0.5709 0.0000
vt 0.7400 0.3743 0.0000
vt 0.7695 0.3743 0.0000
vt 0.7695 0.3848 0.0000
vt 0.7400 0.3848 0.0000
vt 0.8113 0.6604 0.0000
vt 0.7308 0.5664 0.0000
vt 0.7400 0.3613 0.0000
vt 0.7695 0.3613 0.0000
vt 0.8266 0.6560 0.0000
vt 0.7145 0.5664 0.0000
vt 0.7400 0.3476 0.0000
vt 0.7695 0.3476 0.0000
vt 0.8428 0.6560 0.0000
vt 0.6993 0.5709 0.0000
vt 0.7400 0.3346 0.0000
vt 0.7695 0.3346 0.0000
vt 0.8581 0.6604 0.0000
vt 0.6868 0.5793 0.0000
vt 0.7400 0.3240 0.0000
vt 0.7695 0.3240 0.0000
vt 0.8705 0.6688 0.0000
vt 0.6787 0.5906 0.0000
vt 0.8653 0.4631 0.0000
vt 0.8358 0.4631 0.0000
vt 0.8358 0.4518 0.0000
vt 0.8653 0.4518 0.0000
vt 0.8786 0.6801 0.0000
vt 0.7907 0.7952 0.0000
vt 0.7879 0.7824 0.0000
vt 0.8347 0.7824 0.0000
vt 0.9132 0.6290 0.0000
vt 0.8837 0.6290 0.0000
vt 0.8837 0.6162 0.0000
vt 0.9132 0.6162 0.0000
vt 0.8786 0.8847 0.0000
vt 0.8347 0.8719 0.0000
vt 0.8815 0.8719 0.0000
vt 0.7988 0.8065 0.0000
vt 0.9132 0.6403 0.0000
vt 0.8837 0.6403 0.0000
vt 0.8705 0.8960 0.0000
vt 0.8113 0.8149 0.0000
vt 0.8358 0.6298 0.0000
vt 0.8653 0.6298 0.0000
vt 0.8653 0.6403 0.0000
vt 0.8358 0.6403 0.0000
vt 0.8581 0.9044 0.0000
vt 0.8266 0.8193 0.0000
vt 0.8358 0.6168 0.0000
vt 0.8653 0.6168 0.0000
vt 0.8428 0.9088 0.0000
vt 0.8428 0.8193 0.0000
vt 0.8358 0.6030 0.0000
vt 0.8653 0.6030 0.0000
vt 0.8266 0.9088 0.0000
vt 0.8581 0.8149 0.0000
vt 0.8358 0.5901 0.0000
vt 0.8653 0.5901 0.0000
vt 0.8113 0.9044 0.0000
vt 0.8705 0.8065 0.0000
vt 0.8358 0.5795 0.0000
vt 0.8653 0.5795 0.0000
vt 0.7988 0.8960 0.0000
vt 0.8786 0.7952 0.0000
vt 0.8837 0.5652 0.0000
vt 0.9132 0.5652 0.0000
vt 0.9132 0.5765 0.0000
vt 0.8837 0.5765 0.0000
vt 0.7907 0.8847 0.0000
vt 0.8815 0.7824 0.0000
vt 0.8837 0.5523 0.0000
vt 0.9132 0.5523 0.0000
vt 0.7879 0.8719 0.0000
vt 0.8786 0.7696 0.0000
vt 0.8837 0.5395 0.0000
vt 0.9132 0.5395 0.0000
vt 0.7907 0.8591 0.0000
vt 0.8705 0.7583 0.0000
vt 0.8837 0.5282 0.0000
vt 0.9132 0.5282 0.0000
vt 0.7988 0.8478 0.0000
vt 0.8581 0.7499 0.0000
vt 0.7879 0.4004 0.0000
vt 0.8174 0.4004 0.0000
vt 0.8174 0.4110 0.0000
vt 0.7879 0.4110 0.0000
vt 0.8113 0.8394 0.0000
vt 0.8428 0.7455 0.0000
vt 0.7879 0.3875 0.0000
vt 0.8174 0.3875 0.0000
vt 0.8266 0.8350 0.0000
vt 0.8266 0.7455 0.0000
vt 0.7879 0.3737 0.0000
vt 0.8174 0.3737 0.0000
vt 0.8428 0.8350 0.0000
vt 0.8113 0.7499 0.0000
vt 0.7879 0.3607 0.0000
vt 0.8174 0.3607 0.0000
vt 0.8581 0.8394 0.0000
vt 0.7988 0.7583 0.0000
vt 0.7879 0.3502 0.0000
vt 0.8174 0.3502 0.0000
vt 0.8705 0.8478 0.0000
vt 0.7907 0.7696 0.0000
vt 0.9132 0.6034 0.0000
vt 0.8837 0.6034 0.0000
vt 0.8837 0.5921 0.0000
vt 0.9132 0.5921 0.0000
vt 0.8786 0.8591 0.0000
vt 0.6787 0.5267 0.0000
vt 0.6759 0.5139 0.0000
vt 0.7227 0.5139 0.0000
vt 0.8653 0.3610 0.0000
vt 0.8358 0.3610 0.0000
vt 0.8358 0.3482 0.0000
vt 0.8653 0.3482 0.0000
vt 0.7666 0.8847 0.0000
vt 0.7227 0.8719 0.0000
vt 0.7695 0.8719 0.0000
vt 0.6868 0.5380 0.0000
vt 0.8653 0.3723 0.0000
vt 0.8358 0.3723 0.0000
vt 0.7585 0.8960 0.0000
vt 0.6993 0.5463 0.0000
vt 0.7879 0.6298 0.0000
vt 0.8174 0.6298 0.0000
vt 0.8174 0.6403 0.0000
vt 0.7879 0.6403 0.0000
vt 0.7461 0.9044 0.0000
vt 0.7145 0.5508 0.0000
vt 0.7879 0.6168 0.0000
vt 0.8174 0.6168 0.0000
vt 0.7308 0.9088 0.0000
vt 0.7308 0.5508 0.0000
vt 0.7879 0.6030 0.0000
vt 0.8174 0.6030 0.0000
vt 0.7145 0.9088 0.0000
vt 0.7461 0.5463 0.0000
vt 0.7879 0.5901 0.0000
vt 0.8174 0.5901 0.0000
vt 0.6993 0.9044 0.0000
vt 0.7585 0.5380 0.0000
vt 0.7879 0.5795 0.0000
vt 0.8174 0.5795 0.0000
vt 0.6868 0.8960 0.0000
vt 0.7666 0.5267 0.0000
vt 0.8358 0.5526 0.0000
vt 0.8653 0.5526 0.0000
vt 0.8653 0.5639 0.0000
vt 0.8358 0.5639 0.0000
vt 0.6787 0.8847 0.0000
vt 0.7695 0.5139 0.0000
vt 0.8358 0.5398 0.0000
vt 0.8653 0.5398 0.0000
vt 0.6759 0.8719 0.0000
vt 0.7666 0.5010 0.0000
vt 0.8358 0.5269 0.0000
vt 0.8653 0.5269 0.0000
vt 0.6787 0.8591 0.0000
vt 0.7585 0.4898 0.0000
vt 0.8358 0.5157 0.0000
vt 0.8653 0.5157 0.0000
vt 0.6868 0.8478 0.0000
vt 0.7461 0.4814 0.0000
vt 0.7879 0.5533 0.0000
vt 0.8174 0.5533 0.0000
vt 0.8174 0.5639 0.0000
vt 0.7879 0.5639 0.0000
vt 0.6993 0.8394 0.0000
vt 0.7308 0.4769 0.0000
vt 0.7879 0.5404 0.0000
vt 0.8174 0.5404 0.0000
vt 0.7145 0.8350 0.0000
vt 0.7145 0.4769 0.0000
vt 0.7879 0.5266 0.0000
vt 0.8174 0.5266 0.0000
vt 0.7308 0.8350 0.0000
vt 0.6993 0.4814 0.0000
vt 0.7879 0.5136 0.0000
vt 0.8174 0.5136 0.0000
vt 0.7461 0.8394 0.0000
vt 0.6868 0.4898 0.0000
vt 0.7879 0.5031 0.0000
vt 0.8174 0.5031 0.0000
vt 0.7585 0.8478 0.0000
vt 0.6787 0.5010 0.0000
vt 0.8653 0.3354 0.0000
vt 0.8358 0.3354 0.0000
vt 0.8358 0.3241 0.0000
vt 0.8653 0.3241 0.0000
vt 0.7666 0.8591 0.0000
vt 0.6787 0.7952 0.0000
vt 0.6759 0.7824 0.0000
vt 0.7227 0.7824 0.0000
vt 0.7695 0.2971 0.0000
vt 0.7400 0.2971 0.0000
vt 0.7400 0.2843 0.0000
vt 0.7695 0.2843 0.0000
vt 0.7666 0.7057 0.0000
vt 0.7227 0.6929 0.0000
vt 0.7695 0.6929 0.0000
vt 0.6868 0.8065 0.0000
vt 0.7695 0.3084 0.0000
vt 0.7400 0.3084 0.0000
vt 0.7585 0.7170 0.0000
vt 0.6993 0.8149 0.0000
vt 0.7879 0.3240 0.0000
vt 0.8174 0.3240 0.0000
vt 0.8174 0.3345 0.0000
vt 0.7879 0.3345 0.0000
vt 0.7461 0.7254 0.0000
vt 0.7145 0.8193 0.0000
vt 0.7879 0.3110 0.0000
vt 0.8174 0.3110 0.0000
vt 0.7308 0.7298 0.0000
vt 0.7308 0.8193 0.0000
vt 0.7879 0.2972 0.0000
vt 0.8174 0.2972 0.0000
vt 0.7145 0.7298 0.0000
vt 0.7461 0.8149 0.0000
vt 0.7879 0.2843 0.0000
vt 0.8174 0.2843 0.0000
vt 0.6993 0.7254 0.0000
vt 0.7585 0.8065 0.0000
vt 0.7879 0.2737 0.0000
vt 0.8174 0.2737 0.0000
vt 0.6868 0.7170 0.0000
vt 0.7666 0.7952 0.0000
vt 0.8358 0.2972 0.0000
vt 0.8653 0.2972 0.0000
vt 0.8653 0.3084 0.0000
vt 0.8358 0.3084 0.0000
vt 0.6787 0.7057 0.0000
vt 0.7695 0.7824 0.0000
vt 0.8358 0.2843 0.0000
vt 0.8653 0.2843 0.0000
vt 0.6759 0.6929 0.0000
vt 0.7666 0.7696 0.0000
vt 0.8358 0.2715 0.0000
vt 0.8653 0.2715 0.0000
vt 0.6787 0.6801 0.0000
vt 0.7585 0.7583 0.0000
vt 0.8358 0.2602 0.0000
vt 0.8653 0.2602 0.0000
vt 0.6868 0.6688 0.0000
vt 0.7461 0.7499 0.0000
vt 0.7879 0.4769 0.0000
vt 0.8174 0.4769 0.0000
vt 0.8174 0.4874 0.0000
vt 0.7879 0.4874 0.0000
vt 0.6993 0.6604 0.0000
vt 0.7308 0.7455 0.0000
vt 0.7879 0.4639 0.0000
vt 0.8174 0.4639 0.0000
vt 0.7145 0.6560 0.0000
vt 0.7145 0.7455 0.0000
vt 0.7879 0.4501 0.0000
vt 0.8174 0.4501 0.0000
vt 0.7308 0.6560 0.0000
vt 0.6993 0.7499 0.0000
vt 0.7879 0.4372 0.0000
vt 0.8174 0.4372 0.0000
vt 0.7461 0.6604 0.0000
vt 0.6868 0.7583 0.0000
vt 0.7879 0.4266 0.0000
vt 0.8174 0.4266 0.0000
vt 0.7585 0.6688 0.0000
vt 0.6787 0.7696 0.0000
vt 0.7695 0.2715 0.0000
vt 0.7400 0.2715 0.0000
vt 0.7400 0.2602 0.0000
vt 0.7695 0.2602 0.0000
vt 0.7666 0.6801 0.0000
# 374 texture coords

o Car_04
g Car_04
usemtl CAR_07
s off
f 1/1/1 2/2/1 3/3/1 
f 3/3/1 4/4/1 1/1/1 
f 5/5/2 6/6/2 7/7/2 
f 7/7/2 8/8/2 5/5/2 
f 9/9/3 10/10/3 7/11/3 
f 7/11/3 6/12/3 9/9/3 
f 11/13/4 4/14/4 3/15/4 
f 3/15/4 12/16/4 11/13/4 
f 2/17/5 13/18/5 12/19/5 
f 12/19/5 3/20/5 2/17/5 
f 6/12/6 5/21/6 14/22/6 
f 14/22/6 9/9/6 6/12/6 
f 8/8/2 13/23/2 15/24/2 
f 15/24/2 5/5/2 8/8/2 
f 16/25/7 10/26/7 9/27/7 
f 9/27/7 14/28/7 16/25/7 
f 8/29/8 7/30/8 10/31/8 
f 10/31/8 16/32/8 8/29/8 
f 5/21/6 15/33/6 11/34/6 
f 11/34/6 14/22/6 5/21/6 
f 12/16/7 16/25/7 14/28/7 
f 14/28/7 11/13/7 12/16/7 
f 17/35/9 18/36/9 19/37/9 
f 19/37/9 20/38/9 17/35/9 
f 13/23/2 2/39/2 1/40/2 
f 1/40/2 15/24/2 13/23/2 
f 15/33/6 1/41/6 4/42/6 
f 4/42/6 11/34/6 15/33/6 
f 13/18/10 17/35/10 20/38/10 
f 20/38/10 12/19/10 13/18/10 
f 8/8/2 18/43/2 17/44/2 
f 17/44/2 13/23/2 8/8/2 
f 16/32/11 19/37/11 18/36/11 
f 18/36/11 8/29/11 16/32/11 
f 12/16/7 20/45/7 19/46/7 
f 19/46/7 16/25/7 12/16/7 
f 21/47/7 22/48/7 23/49/7 
f 21/50/12 24/51/12 25/52/12 
f 25/52/12 22/53/12 21/50/12 
f 24/54/2 26/55/2 25/56/2 
f 27/57/7 21/47/7 23/49/7 
f 27/58/13 28/59/13 24/51/13 
f 24/51/13 21/50/13 27/58/13 
f 28/60/2 26/55/2 24/54/2 
f 29/61/7 27/57/7 23/49/7 
f 29/62/14 30/63/14 28/64/14 
f 28/64/14 27/65/14 29/62/14 
f 30/66/2 26/55/2 28/60/2 
f 31/67/7 29/61/7 23/49/7 
f 31/68/15 32/69/15 30/63/15 
f 30/63/15 29/62/15 31/68/15 
f 32/70/2 26/55/2 30/66/2 
f 33/71/7 31/67/7 23/49/7 
f 33/72/9 34/73/9 32/69/9 
f 32/69/9 31/68/9 33/72/9 
f 34/74/2 26/55/2 32/70/2 
f 35/75/7 33/71/7 23/49/7 
f 35/76/16 36/77/16 34/73/16 
f 34/73/16 33/72/16 35/76/16 
f 36/78/2 26/55/2 34/74/2 
f 37/79/7 35/75/7 23/49/7 
f 37/80/17 38/81/17 36/77/17 
f 36/77/17 35/76/17 37/80/17 
f 38/82/2 26/55/2 36/78/2 
f 39/83/7 37/79/7 23/49/7 
f 39/84/18 40/85/18 38/86/18 
f 38/86/18 37/87/18 39/84/18 
f 40/88/2 26/55/2 38/82/2 
f 41/89/7 39/83/7 23/49/7 
f 41/90/19 42/91/19 40/85/19 
f 40/85/19 39/84/19 41/90/19 
f 42/92/2 26/55/2 40/88/2 
f 43/93/7 41/89/7 23/49/7 
f 43/94/20 44/95/20 42/91/20 
f 42/91/20 41/90/20 43/94/20 
f 44/96/2 26/55/2 42/92/2 
f 45/97/7 43/93/7 23/49/7 
f 45/98/21 46/99/21 44/95/21 
f 44/95/21 43/94/21 45/98/21 
f 46/100/2 26/55/2 44/96/2 
f 47/101/7 45/97/7 23/49/7 
f 47/102/22 48/103/22 46/104/22 
f 46/104/22 45/105/22 47/102/22 
f 48/106/2 26/55/2 46/100/2 
f 49/107/7 47/101/7 23/49/7 
f 49/108/23 50/109/23 48/103/23 
f 48/103/23 47/102/23 49/108/23 
f 50/110/2 26/55/2 48/106/2 
f 51/111/7 49/107/7 23/49/7 
f 51/112/6 52/113/6 50/109/6 
f 50/109/6 49/108/6 51/112/6 
f 52/114/2 26/55/2 50/110/2 
f 53/115/7 51/111/7 23/49/7 
f 53/116/24 54/117/24 52/113/24 
f 52/113/24 51/112/24 53/116/24 
f 54/118/2 26/55/2 52/114/2 
f 55/119/7 53/115/7 23/49/7 
f 55/120/25 56/121/25 54/117/25 
f 54/117/25 53/116/25 55/120/25 
f 56/122/2 26/55/2 54/118/2 
f 57/123/7 55/119/7 23/49/7 
f 57/124/26 58/125/26 56/126/26 
f 56/126/26 55/127/26 57/124/26 
f 58/128/2 26/55/2 56/122/2 
f 22/48/7 57/123/7 23/49/7 
f 22/53/27 25/52/27 58/125/27 
f 58/125/27 57/124/27 22/53/27 
f 25/56/2 26/55/2 58/128/2 
f 59/129/7 60/130/7 61/131/7 
f 59/132/12 62/133/12 63/134/12 
f 63/134/12 60/135/12 59/132/12 
f 62/136/2 64/137/2 63/138/2 
f 65/139/7 59/129/7 61/131/7 
f 65/140/13 66/141/13 62/133/13 
f 62/133/13 59/132/13 65/140/13 
f 66/142/2 64/137/2 62/136/2 
f 67/143/7 65/139/7 61/131/7 
f 67/144/14 68/145/14 66/146/14 
f 66/146/14 65/147/14 67/144/14 
f 68/148/2 64/137/2 66/142/2 
f 69/149/7 67/143/7 61/131/7 
f 69/150/15 70/151/15 68/145/15 
f 68/145/15 67/144/15 69/150/15 
f 70/152/2 64/137/2 68/148/2 
f 71/153/7 69/149/7 61/131/7 
f 71/154/9 72/155/9 70/151/9 
f 70/151/9 69/150/9 71/154/9 
f 72/156/2 64/137/2 70/152/2 
f 73/157/7 71/153/7 61/131/7 
f 73/158/16 74/159/16 72/155/16 
f 72/155/16 71/154/16 73/158/16 
f 74/160/2 64/137/2 72/156/2 
f 75/161/7 73/157/7 61/131/7 
f 75/162/17 76/163/17 74/159/17 
f 74/159/17 73/158/17 75/162/17 
f 76/164/2 64/137/2 74/160/2 
f 77/165/7 75/161/7 61/131/7 
f 77/166/18 78/167/18 76/168/18 
f 76/168/18 75/169/18 77/166/18 
f 78/170/2 64/137/2 76/164/2 
f 79/171/7 77/165/7 61/131/7 
f 79/172/19 80/173/19 78/167/19 
f 78/167/19 77/166/19 79/172/19 
f 80/174/2 64/137/2 78/170/2 
f 81/175/7 79/171/7 61/131/7 
f 81/176/20 82/177/20 80/173/20 
f 80/173/20 79/172/20 81/176/20 
f 82/178/2 64/137/2 80/174/2 
f 83/179/7 81/175/7 61/131/7 
f 83/180/21 84/181/21 82/177/21 
f 82/177/21 81/176/21 83/180/21 
f 84/182/2 64/137/2 82/178/2 
f 85/183/7 83/179/7 61/131/7 
f 85/184/22 86/185/22 84/186/22 
f 84/186/22 83/187/22 85/184/22 
f 86/188/2 64/137/2 84/182/2 
f 87/189/7 85/183/7 61/131/7 
f 87/190/23 88/191/23 86/185/23 
f 86/185/23 85/184/23 87/190/23 
f 88/192/2 64/137/2 86/188/2 
f 89/193/7 87/189/7 61/131/7 
f 89/194/6 90/195/6 88/191/6 
f 88/191/6 87/190/6 89/194/6 
f 90/196/2 64/137/2 88/192/2 
f 91/197/7 89/193/7 61/131/7 
f 91/198/24 92/199/24 90/195/24 
f 90/195/24 89/194/24 91/198/24 
f 92/200/2 64/137/2 90/196/2 
f 93/201/7 91/197/7 61/131/7 
f 93/202/25 94/203/25 92/199/25 
f 92/199/25 91/198/25 93/202/25 
f 94/204/2 64/137/2 92/200/2 
f 95/205/7 93/201/7 61/131/7 
f 95/206/26 96/207/26 94/208/26 
f 94/208/26 93/209/26 95/206/26 
f 96/210/2 64/137/2 94/204/2 
f 60/130/7 95/205/7 61/131/7 
f 60/135/27 63/134/27 96/207/27 
f 96/207/27 95/206/27 60/135/27 
f 63/138/2 64/137/2 96/210/2 
f 97/211/7 98/212/7 99/213/7 
f 97/214/12 100/215/12 101/216/12 
f 101/216/12 98/217/12 97/214/12 
f 100/218/2 102/219/2 101/220/2 
f 103/221/7 97/211/7 99/213/7 
f 103/222/13 104/223/13 100/215/13 
f 100/215/13 97/214/13 103/222/13 
f 104/224/2 102/219/2 100/218/2 
f 105/225/7 103/221/7 99/213/7 
f 105/226/14 106/227/14 104/228/14 
f 104/228/14 103/229/14 105/226/14 
f 106/230/2 102/219/2 104/224/2 
f 107/231/7 105/225/7 99/213/7 
f 107/232/15 108/233/15 106/227/15 
f 106/227/15 105/226/15 107/232/15 
f 108/234/2 102/219/2 106/230/2 
f 109/235/7 107/231/7 99/213/7 
f 109/236/9 110/237/9 108/233/9 
f 108/233/9 107/232/9 109/236/9 
f 110/238/2 102/219/2 108/234/2 
f 111/239/7 109/235/7 99/213/7 
f 111/240/16 112/241/16 110/237/16 
f 110/237/16 109/236/16 111/240/16 
f 112/242/2 102/219/2 110/238/2 
f 113/243/7 111/239/7 99/213/7 
f 113/244/17 114/245/17 112/241/17 
f 112/241/17 111/240/17 113/244/17 
f 114/246/2 102/219/2 112/242/2 
f 115/247/7 113/243/7 99/213/7 
f 115/248/18 116/249/18 114/250/18 
f 114/250/18 113/251/18 115/248/18 
f 116/252/2 102/219/2 114/246/2 
f 117/253/7 115/247/7 99/213/7 
f 117/254/19 118/255/19 116/249/19 
f 116/249/19 115/248/19 117/254/19 
f 118/256/2 102/219/2 116/252/2 
f 119/257/7 117/253/7 99/213/7 
f 119/258/20 120/259/20 118/255/20 
f 118/255/20 117/254/20 119/258/20 
f 120/260/2 102/219/2 118/256/2 
f 121/261/7 119/257/7 99/213/7 
f 121/262/21 122/263/21 120/259/21 
f 120/259/21 119/258/21 121/262/21 
f 122/264/2 102/219/2 120/260/2 
f 123/265/7 121/261/7 99/213/7 
f 123/266/22 124/267/22 122/268/22 
f 122/268/22 121/269/22 123/266/22 
f 124/270/2 102/219/2 122/264/2 
f 125/271/4 123/265/4 99/213/4 
f 125/272/23 126/273/23 124/267/23 
f 124/267/23 123/266/23 125/272/23 
f 126/274/2 102/219/2 124/270/2 
f 127/275/4 125/271/4 99/213/4 
f 127/276/6 128/277/6 126/273/6 
f 126/273/6 125/272/6 127/276/6 
f 128/278/2 102/219/2 126/274/2 
f 129/279/7 127/275/7 99/213/7 
f 129/280/24 130/281/24 128/277/24 
f 128/277/24 127/276/24 129/280/24 
f 130/282/2 102/219/2 128/278/2 
f 131/283/7 129/279/7 99/213/7 
f 131/284/25 132/285/25 130/281/25 
f 130/281/25 129/280/25 131/284/25 
f 132/286/2 102/219/2 130/282/2 
f 133/287/7 131/283/7 99/213/7 
f 133/288/26 134/289/26 132/290/26 
f 132/290/26 131/291/26 133/288/26 
f 134/292/2 102/219/2 132/286/2 
f 98/212/7 133/287/7 99/213/7 
f 98/217/27 101/216/27 134/289/27 
f 134/289/27 133/288/27 98/217/27 
f 101/220/2 102/219/2 134/292/2 
f 135/293/7 136/294/7 137/295/7 
f 135/296/12 138/297/12 139/298/12 
f 139/298/12 136/299/12 135/296/12 
f 138/300/2 140/301/2 139/302/2 
f 141/303/7 135/293/7 137/295/7 
f 141/304/13 142/305/13 138/297/13 
f 138/297/13 135/296/13 141/304/13 
f 142/306/2 140/301/2 138/300/2 
f 143/307/7 141/303/7 137/295/7 
f 143/308/14 144/309/14 142/310/14 
f 142/310/14 141/311/14 143/308/14 
f 144/312/2 140/301/2 142/306/2 
f 145/313/7 143/307/7 137/295/7 
f 145/314/15 146/315/15 144/309/15 
f 144/309/15 143/308/15 145/314/15 
f 146/316/2 140/301/2 144/312/2 
f 147/317/7 145/313/7 137/295/7 
f 147/318/9 148/319/9 146/315/9 
f 146/315/9 145/314/9 147/318/9 
f 148/320/2 140/301/2 146/316/2 
f 149/321/7 147/317/7 137/295/7 
f 149/322/16 150/323/16 148/319/16 
f 148/319/16 147/318/16 149/322/16 
f 150/324/2 140/301/2 148/320/2 
f 151/325/7 149/321/7 137/295/7 
f 151/326/17 152/327/17 150/323/17 
f 150/323/17 149/322/17 151/326/17 
f 152/328/2 140/301/2 150/324/2 
f 153/329/7 151/325/7 137/295/7 
f 153/330/18 154/331/18 152/332/18 
f 152/332/18 151/333/18 153/330/18 
f 154/334/2 140/301/2 152/328/2 
f 155/335/7 153/329/7 137/295/7 
f 155/336/19 156/337/19 154/331/19 
f 154/331/19 153/330/19 155/336/19 
f 156/338/2 140/301/2 154/334/2 
f 157/339/7 155/335/7 137/295/7 
f 157/340/20 158/341/20 156/337/20 
f 156/337/20 155/336/20 157/340/20 
f 158/342/2 140/301/2 156/338/2 
f 159/343/7 157/339/7 137/295/7 
f 159/344/21 160/345/21 158/341/21 
f 158/341/21 157/340/21 159/344/21 
f 160/346/2 140/301/2 158/342/2 
f 161/347/7 159/343/7 137/295/7 
f 161/348/22 162/349/22 160/350/22 
f 160/350/22 159/351/22 161/348/22 
f 162/352/2 140/301/2 160/346/2 
f 163/353/7 161/347/7 137/295/7 
f 163/354/23 164/355/23 162/349/23 
f 162/349/23 161/348/23 163/354/23 
f 164/356/2 140/301/2 162/352/2 
f 165/357/7 163/353/7 137/295/7 
f 165/358/6 166/359/6 164/355/6 
f 164/355/6 163/354/6 165/358/6 
f 166/360/2 140/301/2 164/356/2 
f 167/361/7 165/357/7 137/295/7 
f 167/362/24 168/363/24 166/359/24 
f 166/359/24 165/358/24 167/362/24 
f 168/364/2 140/301/2 166/360/2 
f 169/365/7 167/361/7 137/295/7 
f 169/366/25 170/367/25 168/363/25 
f 168/363/25 167/362/25 169/366/25 
f 170/368/2 140/301/2 168/364/2 
f 171/369/7 169/365/7 137/295/7 
f 171/370/26 172/371/26 170/372/26 
f 170/372/26 169/373/26 171/370/26 
f 172/374/2 140/301/2 170/368/2 
f 136/294/7 171/369/7 137/295/7 
f 136/299/27 139/298/27 172/371/27 
f 172/371/27 171/370/27 136/299/27 
f 139/302/2 140/301/2 172/374/2 
# 324 faces

