# 3ds Max Wavefront OBJ Exporter v0.97b - (c)2007 guruware
# File Created: 12.01.2020 19:35:51

#
# object Car_04
#

v  -25.3348 2.8576 20.3264
v  -25.3348 2.8576 -15.1408
v  -25.3348 -6.1300 -15.1408
v  -25.3348 -6.1300 20.3264
v  49.1287 -6.1300 20.3264
v  51.2042 1.5396 20.3264
v  28.1557 5.3221 20.3264
v  28.1557 -6.1300 20.3264
v  51.2042 1.5396 -15.1408
v  49.1287 -6.1300 -15.1408
v  -9.3817 5.3221 -15.1408
v  -9.3817 -6.1300 -15.1408
v  -9.3817 5.3221 20.3264
v  28.1557 -6.1300 -15.1408
v  -9.3817 -6.1300 20.3264
v  28.1557 5.3221 -15.1408
v  22.2671 18.8751 20.3264
v  22.2671 18.8751 -15.1408
v  -7.3535 18.8751 -15.1408
v  -7.3535 18.8751 20.3264
v  40.1996 -3.1912 18.4406
v  40.5174 -4.8944 18.4406
v  35.2481 -4.8944 18.4406
v  40.1996 -3.1912 21.7598
v  40.5174 -4.8944 21.7598
v  35.2481 -4.8944 21.7598
v  39.2846 -1.6935 18.4406
v  39.2846 -1.6935 21.7598
v  37.8827 -0.5818 18.4406
v  37.8827 -0.5818 21.7598
v  36.1631 0.0097 18.4406
v  36.1631 0.0097 21.7598
v  34.3330 0.0097 18.4406
v  34.3330 0.0097 21.7598
v  32.6134 -0.5818 18.4406
v  32.6134 -0.5818 21.7598
v  31.2115 -1.6935 18.4406
v  31.2115 -1.6935 21.7598
v  30.2965 -3.1912 18.4406
v  30.2965 -3.1912 21.7598
v  29.9787 -4.8944 18.4406
v  29.9787 -4.8944 21.7598
v  30.2965 -6.5976 18.4406
v  30.2965 -6.5976 21.7598
v  31.2115 -8.0953 18.4406
v  31.2115 -8.0953 21.7598
v  32.6134 -9.2070 18.4406
v  32.6134 -9.2070 21.7598
v  34.3330 -9.7985 18.4406
v  34.3330 -9.7985 21.7598
v  36.1631 -9.7985 18.4406
v  36.1631 -9.7985 21.7598
v  37.8827 -9.2070 18.4406
v  37.8827 -9.2070 21.7598
v  39.2846 -8.0953 18.4406
v  39.2846 -8.0953 21.7598
v  40.1996 -6.5976 18.4406
v  40.1996 -6.5976 21.7598
v  40.1996 -3.1912 -17.0845
v  40.5174 -4.8944 -17.0845
v  35.2481 -4.8944 -17.0845
v  40.1996 -3.1912 -13.7653
v  40.5174 -4.8944 -13.7653
v  35.2481 -4.8944 -13.7653
v  39.2846 -1.6935 -17.0845
v  39.2846 -1.6935 -13.7653
v  37.8827 -0.5818 -17.0845
v  37.8827 -0.5818 -13.7653
v  36.1631 0.0097 -17.0845
v  36.1631 0.0097 -13.7653
v  34.3330 0.0097 -17.0845
v  34.3330 0.0097 -13.7653
v  32.6134 -0.5818 -17.0845
v  32.6134 -0.5818 -13.7653
v  31.2115 -1.6935 -17.0845
v  31.2115 -1.6935 -13.7653
v  30.2965 -3.1912 -17.0845
v  30.2965 -3.1912 -13.7653
v  29.9787 -4.8944 -17.0845
v  29.9787 -4.8944 -13.7653
v  30.2965 -6.5976 -17.0845
v  30.2965 -6.5976 -13.7653
v  31.2115 -8.0953 -17.0845
v  31.2115 -8.0953 -13.7653
v  32.6134 -9.2070 -17.0845
v  32.6134 -9.2070 -13.7653
v  34.3330 -9.7985 -17.0845
v  34.3330 -9.7985 -13.7653
v  36.1631 -9.7985 -17.0845
v  36.1631 -9.7985 -13.7653
v  37.8827 -9.2070 -17.0845
v  37.8827 -9.2070 -13.7653
v  39.2846 -8.0953 -17.0845
v  39.2846 -8.0953 -13.7653
v  40.1996 -6.5976 -17.0845
v  40.1996 -6.5976 -13.7653
v  -3.3250 -3.4467 18.9832
v  -3.0072 -5.1499 18.9832
v  -8.2765 -5.1499 18.9832
v  -3.3250 -3.4467 22.3024
v  -3.0072 -5.1499 22.3024
v  -8.2765 -5.1499 22.3024
v  -4.2400 -1.9489 18.9832
v  -4.2400 -1.9489 22.3024
v  -5.6418 -0.8373 18.9832
v  -5.6418 -0.8373 22.3024
v  -7.3615 -0.2458 18.9832
v  -7.3615 -0.2458 22.3024
v  -9.1915 -0.2458 18.9832
v  -9.1915 -0.2458 22.3024
v  -10.9112 -0.8373 18.9832
v  -10.9112 -0.8373 22.3024
v  -12.3131 -1.9489 18.9832
v  -12.3131 -1.9489 22.3024
v  -13.2281 -3.4467 18.9832
v  -13.2281 -3.4467 22.3024
v  -13.5459 -5.1499 18.9832
v  -13.5459 -5.1499 22.3024
v  -13.2281 -6.8530 18.9832
v  -13.2281 -6.8530 22.3024
v  -12.3131 -8.3508 18.9832
v  -12.3131 -8.3508 22.3024
v  -10.9112 -9.4624 18.9832
v  -10.9112 -9.4624 22.3024
v  -9.1915 -10.0539 18.9832
v  -9.1915 -10.0539 22.3024
v  -7.3615 -10.0539 18.9832
v  -7.3615 -10.0539 22.3024
v  -5.6418 -9.4624 18.9832
v  -5.6418 -9.4624 22.3024
v  -4.2400 -8.3508 18.9832
v  -4.2400 -8.3508 22.3024
v  -3.3250 -6.8530 18.9832
v  -3.3250 -6.8530 22.3024
v  -3.3250 -3.4467 -16.5419
v  -3.0072 -5.1499 -16.5419
v  -8.2765 -5.1499 -16.5419
v  -3.3250 -3.4467 -13.2227
v  -3.0072 -5.1499 -13.2227
v  -8.2765 -5.1499 -13.2227
v  -4.2400 -1.9489 -16.5419
v  -4.2400 -1.9489 -13.2227
v  -5.6418 -0.8373 -16.5419
v  -5.6418 -0.8373 -13.2227
v  -7.3615 -0.2458 -16.5419
v  -7.3615 -0.2458 -13.2227
v  -9.1915 -0.2458 -16.5419
v  -9.1915 -0.2458 -13.2227
v  -10.9112 -0.8373 -16.5419
v  -10.9112 -0.8373 -13.2227
v  -12.3131 -1.9489 -16.5419
v  -12.3131 -1.9489 -13.2227
v  -13.2281 -3.4467 -16.5419
v  -13.2281 -3.4467 -13.2227
v  -13.5459 -5.1499 -16.5419
v  -13.5459 -5.1499 -13.2227
v  -13.2281 -6.8530 -16.5419
v  -13.2281 -6.8530 -13.2227
v  -12.3131 -8.3508 -16.5419
v  -12.3131 -8.3508 -13.2227
v  -10.9112 -9.4624 -16.5419
v  -10.9112 -9.4624 -13.2227
v  -9.1915 -10.0539 -16.5419
v  -9.1915 -10.0539 -13.2227
v  -7.3615 -10.0539 -16.5419
v  -7.3615 -10.0539 -13.2227
v  -5.6418 -9.4624 -16.5419
v  -5.6418 -9.4624 -13.2227
v  -4.2400 -8.3508 -16.5419
v  -4.2400 -8.3508 -13.2227
v  -3.3250 -6.8530 -16.5419
v  -3.3250 -6.8530 -13.2227
# 172 vertices

vn -0.6152 0.5275 0.5858
vn -0.6152 0.5275 -0.5858
vn -0.5774 -0.5774 -0.5774
vn -0.5774 -0.5774 0.5774
vn 0.4896 -0.6397 0.5925
vn 0.6896 0.4439 0.5722
vn 0.3407 0.4374 0.8322
vn 0.0000 -0.7071 0.7071
vn 0.6896 0.4439 -0.5722
vn 0.4896 -0.6397 -0.5925
vn -0.3527 0.3510 -0.8674
vn 0.0000 -0.7071 -0.7071
vn -0.3527 0.3510 0.8674
vn 0.3407 0.4374 -0.8322
vn 0.4379 0.6677 0.6020
vn 0.4379 0.6677 -0.6020
vn -0.5291 0.6142 -0.5856
vn -0.5291 0.6142 0.5856
vn 0.6943 0.2664 -0.6685
vn 0.7441 0.0000 -0.6681
vn 0.0000 0.0000 -1.0000
vn 0.6943 0.2664 0.6686
vn 0.7441 -0.0000 0.6681
vn 0.0000 -0.0000 1.0000
vn 0.5561 0.4921 -0.6697
vn 0.5561 0.4921 0.6697
vn 0.3560 0.6504 -0.6710
vn 0.3560 0.6504 0.6710
vn 0.1221 0.7306 -0.6718
vn 0.1221 0.7306 0.6718
vn -0.1221 0.7306 -0.6718
vn -0.1221 0.7306 0.6718
vn -0.3560 0.6504 -0.6710
vn -0.3560 0.6504 0.6710
vn -0.5561 0.4921 -0.6697
vn -0.5561 0.4921 0.6697
vn -0.6943 0.2664 -0.6686
vn -0.6943 0.2664 0.6686
vn -0.7441 0.0000 -0.6681
vn -0.7441 -0.0000 0.6681
vn -0.6943 -0.2664 -0.6686
vn -0.6943 -0.2664 0.6686
vn -0.5561 -0.4921 -0.6697
vn -0.5561 -0.4921 0.6697
vn -0.3560 -0.6504 -0.6710
vn -0.3560 -0.6504 0.6710
vn -0.1221 -0.7306 -0.6718
vn -0.1221 -0.7306 0.6718
vn 0.1221 -0.7306 -0.6718
vn 0.1221 -0.7306 0.6718
vn 0.3560 -0.6504 -0.6710
vn 0.3560 -0.6504 0.6710
vn 0.5561 -0.4921 -0.6697
vn 0.5561 -0.4921 0.6697
vn 0.6943 -0.2664 -0.6686
vn 0.6943 -0.2665 0.6686
vn 0.3560 0.6503 0.6711
vn -0.6943 0.2665 0.6686
vn -0.7441 0.0000 0.6681
vn 0.6943 0.2665 -0.6686
vn -0.3560 -0.6503 0.6711
vn 0.3560 -0.6503 -0.6711
# 62 vertex normals

vt 0.0092 0.2795 0.0000
vt 0.3426 0.4157 0.0000
vt 0.0092 0.9922 0.0000
vt 0.3241 0.9922 0.0000
vt 0.3241 0.4314 0.0000
vt 0.6574 0.9922 0.0000
vt 0.6574 0.8186 0.0000
vt 0.3241 0.5893 0.0000
vt 0.3426 0.9922 0.0000
vt 0.0276 0.0078 0.0000
vt 0.5471 0.0941 0.0000
vt 0.0092 0.8720 0.0000
vt 0.1509 0.2980 0.0000
vt 0.2139 0.0078 0.0000
vt 0.3241 0.8720 0.0000
vt 0.2139 0.0941 0.0000
vt 0.6574 0.7742 0.0000
vt 0.2661 0.1961 0.0000
vt 0.5291 0.1961 0.0000
vt 0.1689 0.4001 0.0000
vt 0.8653 0.4887 0.0000
vt 0.8653 0.4759 0.0000
vt 0.7227 0.6034 0.0000
vt 0.8786 0.7057 0.0000
vt 0.8815 0.6929 0.0000
vt 0.8347 0.6929 0.0000
vt 0.7400 0.4613 0.0000
vt 0.8705 0.7170 0.0000
vt 0.7400 0.4507 0.0000
vt 0.8581 0.7254 0.0000
vt 0.7400 0.4378 0.0000
vt 0.8428 0.7298 0.0000
vt 0.7400 0.4240 0.0000
vt 0.8266 0.7298 0.0000
vt 0.7400 0.4110 0.0000
vt 0.8113 0.7254 0.0000
vt 0.8358 0.4362 0.0000
vt 0.7988 0.7170 0.0000
vt 0.8358 0.4249 0.0000
vt 0.7907 0.7057 0.0000
vt 0.8358 0.4120 0.0000
vt 0.7879 0.6929 0.0000
vt 0.8358 0.3992 0.0000
vt 0.7907 0.6801 0.0000
vt 0.7400 0.3848 0.0000
vt 0.7988 0.6688 0.0000
vt 0.7400 0.3743 0.0000
vt 0.8113 0.6604 0.0000
vt 0.7400 0.3613 0.0000
vt 0.8266 0.6560 0.0000
vt 0.7400 0.3476 0.0000
vt 0.8428 0.6560 0.0000
vt 0.7400 0.3346 0.0000
vt 0.8581 0.6604 0.0000
vt 0.8653 0.4518 0.0000
vt 0.8705 0.6688 0.0000
vt 0.8653 0.4631 0.0000
vt 0.8786 0.6801 0.0000
vt 0.9132 0.6290 0.0000
vt 0.9132 0.6162 0.0000
vt 0.8347 0.7824 0.0000
vt 0.8786 0.8847 0.0000
vt 0.8815 0.8719 0.0000
vt 0.8347 0.8719 0.0000
vt 0.8358 0.6403 0.0000
vt 0.8705 0.8960 0.0000
vt 0.8358 0.6298 0.0000
vt 0.8581 0.9044 0.0000
vt 0.8358 0.6168 0.0000
vt 0.8428 0.9088 0.0000
vt 0.8358 0.6030 0.0000
vt 0.8266 0.9088 0.0000
vt 0.8358 0.5901 0.0000
vt 0.8113 0.9044 0.0000
vt 0.8837 0.5765 0.0000
vt 0.7988 0.8960 0.0000
vt 0.8837 0.5652 0.0000
vt 0.7907 0.8847 0.0000
vt 0.8837 0.5523 0.0000
vt 0.7879 0.8719 0.0000
vt 0.8837 0.5395 0.0000
vt 0.7907 0.8591 0.0000
vt 0.7879 0.4110 0.0000
vt 0.7988 0.8478 0.0000
vt 0.7879 0.4004 0.0000
vt 0.8113 0.8394 0.0000
vt 0.7879 0.3875 0.0000
vt 0.8266 0.8350 0.0000
vt 0.7879 0.3737 0.0000
vt 0.8428 0.8350 0.0000
vt 0.7879 0.3607 0.0000
vt 0.8581 0.8394 0.0000
vt 0.9132 0.5921 0.0000
vt 0.8705 0.8478 0.0000
vt 0.9132 0.6034 0.0000
vt 0.8786 0.8591 0.0000
vt 0.8653 0.3610 0.0000
vt 0.8653 0.3482 0.0000
vt 0.7227 0.5139 0.0000
vt 0.7666 0.8847 0.0000
vt 0.7695 0.8719 0.0000
vt 0.7227 0.8719 0.0000
vt 0.7879 0.6403 0.0000
vt 0.7585 0.8960 0.0000
vt 0.7879 0.6298 0.0000
vt 0.7461 0.9044 0.0000
vt 0.7879 0.6168 0.0000
vt 0.7308 0.9088 0.0000
vt 0.7879 0.6030 0.0000
vt 0.7145 0.9088 0.0000
vt 0.7879 0.5901 0.0000
vt 0.6993 0.9044 0.0000
vt 0.8358 0.5639 0.0000
vt 0.6868 0.8960 0.0000
vt 0.8358 0.5526 0.0000
vt 0.6787 0.8847 0.0000
vt 0.8358 0.5398 0.0000
vt 0.6759 0.8719 0.0000
vt 0.8358 0.5269 0.0000
vt 0.6787 0.8591 0.0000
vt 0.7879 0.5639 0.0000
vt 0.6868 0.8478 0.0000
vt 0.7879 0.5533 0.0000
vt 0.6993 0.8394 0.0000
vt 0.7879 0.5404 0.0000
vt 0.7145 0.8350 0.0000
vt 0.7879 0.5266 0.0000
vt 0.7308 0.8350 0.0000
vt 0.7879 0.5136 0.0000
vt 0.7461 0.8394 0.0000
vt 0.8653 0.3241 0.0000
vt 0.7585 0.8478 0.0000
vt 0.8653 0.3354 0.0000
vt 0.7666 0.8591 0.0000
vt 0.7695 0.2971 0.0000
vt 0.7695 0.2843 0.0000
vt 0.7227 0.7824 0.0000
vt 0.7666 0.7057 0.0000
vt 0.7695 0.6929 0.0000
vt 0.7227 0.6929 0.0000
vt 0.7879 0.3345 0.0000
vt 0.7585 0.7170 0.0000
vt 0.7879 0.3240 0.0000
vt 0.7461 0.7254 0.0000
vt 0.7879 0.3110 0.0000
vt 0.7308 0.7298 0.0000
vt 0.7879 0.2972 0.0000
vt 0.7145 0.7298 0.0000
vt 0.7879 0.2843 0.0000
vt 0.6993 0.7254 0.0000
vt 0.8358 0.3084 0.0000
vt 0.6868 0.7170 0.0000
vt 0.8358 0.2972 0.0000
vt 0.6787 0.7057 0.0000
vt 0.8358 0.2843 0.0000
vt 0.6759 0.6929 0.0000
vt 0.8358 0.2715 0.0000
vt 0.6787 0.6801 0.0000
vt 0.7879 0.4874 0.0000
vt 0.6868 0.6688 0.0000
vt 0.7879 0.4769 0.0000
vt 0.6993 0.6604 0.0000
vt 0.7879 0.4639 0.0000
vt 0.7145 0.6560 0.0000
vt 0.7879 0.4501 0.0000
vt 0.7308 0.6560 0.0000
vt 0.7879 0.4372 0.0000
vt 0.7461 0.6604 0.0000
vt 0.7695 0.2602 0.0000
vt 0.7585 0.6688 0.0000
vt 0.7695 0.2715 0.0000
vt 0.7666 0.6801 0.0000
# 172 texture coords

o Car_04
g Car_04
s off
f 1/1/1 2/2/2 3/3/3 
f 4/4/4 1/1/1 3/3/3 
f 5/5/5 6/6/6 7/7/7 
f 8/8/8 5/5/5 7/7/7 
f 9/9/9 6/6/6 5/5/5 
f 10/10/10 9/9/9 5/5/5 
f 3/3/3 2/2/2 11/11/11 
f 12/12/12 3/3/3 11/11/11 
f 13/13/13 11/11/11 2/2/2 
f 1/1/1 13/13/13 2/2/2 
f 8/8/8 14/14/12 10/10/10 
f 5/5/5 8/8/8 10/10/10 
f 13/13/13 15/15/8 8/8/8 
f 7/7/7 13/13/13 8/8/8 
f 9/9/9 10/10/10 14/14/12 
f 16/16/14 9/9/9 14/14/12 
f 6/6/6 9/9/9 16/16/14 
f 7/7/7 6/6/6 16/16/14 
f 15/15/8 12/12/12 14/14/12 
f 8/8/8 15/15/8 14/14/12 
f 16/16/14 14/14/12 12/12/12 
f 11/11/11 16/16/14 12/12/12 
f 17/17/15 18/18/16 19/19/17 
f 20/20/18 17/17/15 19/19/17 
f 1/1/1 4/4/4 15/15/8 
f 13/13/13 1/1/1 15/15/8 
f 4/4/4 3/3/3 12/12/12 
f 15/15/8 4/4/4 12/12/12 
f 20/20/18 19/19/17 11/11/11 
f 13/13/13 20/20/18 11/11/11 
f 17/17/15 20/20/18 13/13/13 
f 7/7/7 17/17/15 13/13/13 
f 18/18/16 17/17/15 7/7/7 
f 16/16/14 18/18/16 7/7/7 
f 19/19/17 18/18/16 16/16/14 
f 11/11/11 19/19/17 16/16/14 
f 21/21/19 22/22/20 23/23/21 
f 24/24/22 25/25/23 22/22/20 
f 21/21/19 24/24/22 22/22/20 
f 24/24/22 26/26/24 25/25/23 
f 27/27/25 21/21/19 23/23/21 
f 28/28/26 24/24/22 21/21/19 
f 27/27/25 28/28/26 21/21/19 
f 28/28/26 26/26/24 24/24/22 
f 29/29/27 27/27/25 23/23/21 
f 30/30/28 28/28/26 27/27/25 
f 29/29/27 30/30/28 27/27/25 
f 30/30/28 26/26/24 28/28/26 
f 31/31/29 29/29/27 23/23/21 
f 32/32/30 30/30/28 29/29/27 
f 31/31/29 32/32/30 29/29/27 
f 32/32/30 26/26/24 30/30/28 
f 33/33/31 31/31/29 23/23/21 
f 34/34/32 32/32/30 31/31/29 
f 33/33/31 34/34/32 31/31/29 
f 34/34/32 26/26/24 32/32/30 
f 35/35/33 33/33/31 23/23/21 
f 36/36/34 34/34/32 33/33/31 
f 35/35/33 36/36/34 33/33/31 
f 36/36/34 26/26/24 34/34/32 
f 37/37/35 35/35/33 23/23/21 
f 38/38/36 36/36/34 35/35/33 
f 37/37/35 38/38/36 35/35/33 
f 38/38/36 26/26/24 36/36/34 
f 39/39/37 37/37/35 23/23/21 
f 40/40/38 38/38/36 37/37/35 
f 39/39/37 40/40/38 37/37/35 
f 40/40/38 26/26/24 38/38/36 
f 41/41/39 39/39/37 23/23/21 
f 42/42/40 40/40/38 39/39/37 
f 41/41/39 42/42/40 39/39/37 
f 42/42/40 26/26/24 40/40/38 
f 43/43/41 41/41/39 23/23/21 
f 44/44/42 42/42/40 41/41/39 
f 43/43/41 44/44/42 41/41/39 
f 44/44/42 26/26/24 42/42/40 
f 45/45/43 43/43/41 23/23/21 
f 46/46/44 44/44/42 43/43/41 
f 45/45/43 46/46/44 43/43/41 
f 46/46/44 26/26/24 44/44/42 
f 47/47/45 45/45/43 23/23/21 
f 48/48/46 46/46/44 45/45/43 
f 47/47/45 48/48/46 45/45/43 
f 48/48/46 26/26/24 46/46/44 
f 49/49/47 47/47/45 23/23/21 
f 50/50/48 48/48/46 47/47/45 
f 49/49/47 50/50/48 47/47/45 
f 50/50/48 26/26/24 48/48/46 
f 51/51/49 49/49/47 23/23/21 
f 52/52/50 50/50/48 49/49/47 
f 51/51/49 52/52/50 49/49/47 
f 52/52/50 26/26/24 50/50/48 
f 53/53/51 51/51/49 23/23/21 
f 54/54/52 52/52/50 51/51/49 
f 53/53/51 54/54/52 51/51/49 
f 54/54/52 26/26/24 52/52/50 
f 55/55/53 53/53/51 23/23/21 
f 56/56/54 54/54/52 53/53/51 
f 55/55/53 56/56/54 53/53/51 
f 56/56/54 26/26/24 54/54/52 
f 57/57/55 55/55/53 23/23/21 
f 58/58/56 56/56/54 55/55/53 
f 57/57/55 58/58/56 55/55/53 
f 58/58/56 26/26/24 56/56/54 
f 22/22/20 57/57/55 23/23/21 
f 25/25/23 58/58/56 57/57/55 
f 22/22/20 25/25/23 57/57/55 
f 25/25/23 26/26/24 58/58/56 
f 59/59/19 60/60/20 61/61/21 
f 62/62/22 63/63/23 60/60/20 
f 59/59/19 62/62/22 60/60/20 
f 62/62/22 64/64/24 63/63/23 
f 65/65/25 59/59/19 61/61/21 
f 66/66/26 62/62/22 59/59/19 
f 65/65/25 66/66/26 59/59/19 
f 66/66/26 64/64/24 62/62/22 
f 67/67/27 65/65/25 61/61/21 
f 68/68/57 66/66/26 65/65/25 
f 67/67/27 68/68/57 65/65/25 
f 68/68/57 64/64/24 66/66/26 
f 69/69/29 67/67/27 61/61/21 
f 70/70/30 68/68/57 67/67/27 
f 69/69/29 70/70/30 67/67/27 
f 70/70/30 64/64/24 68/68/57 
f 71/71/31 69/69/29 61/61/21 
f 72/72/32 70/70/30 69/69/29 
f 71/71/31 72/72/32 69/69/29 
f 72/72/32 64/64/24 70/70/30 
f 73/73/33 71/71/31 61/61/21 
f 74/74/34 72/72/32 71/71/31 
f 73/73/33 74/74/34 71/71/31 
f 74/74/34 64/64/24 72/72/32 
f 75/75/35 73/73/33 61/61/21 
f 76/76/36 74/74/34 73/73/33 
f 75/75/35 76/76/36 73/73/33 
f 76/76/36 64/64/24 74/74/34 
f 77/77/37 75/75/35 61/61/21 
f 78/78/58 76/76/36 75/75/35 
f 77/77/37 78/78/58 75/75/35 
f 78/78/58 64/64/24 76/76/36 
f 79/79/39 77/77/37 61/61/21 
f 80/80/59 78/78/58 77/77/37 
f 79/79/39 80/80/59 77/77/37 
f 80/80/59 64/64/24 78/78/58 
f 81/81/41 79/79/39 61/61/21 
f 82/82/42 80/80/59 79/79/39 
f 81/81/41 82/82/42 79/79/39 
f 82/82/42 64/64/24 80/80/59 
f 83/83/43 81/81/41 61/61/21 
f 84/84/44 82/82/42 81/81/41 
f 83/83/43 84/84/44 81/81/41 
f 84/84/44 64/64/24 82/82/42 
f 85/85/45 83/83/43 61/61/21 
f 86/86/46 84/84/44 83/83/43 
f 85/85/45 86/86/46 83/83/43 
f 86/86/46 64/64/24 84/84/44 
f 87/87/47 85/85/45 61/61/21 
f 88/88/48 86/86/46 85/85/45 
f 87/87/47 88/88/48 85/85/45 
f 88/88/48 64/64/24 86/86/46 
f 89/89/49 87/87/47 61/61/21 
f 90/90/50 88/88/48 87/87/47 
f 89/89/49 90/90/50 87/87/47 
f 90/90/50 64/64/24 88/88/48 
f 91/91/51 89/89/49 61/61/21 
f 92/92/52 90/90/50 89/89/49 
f 91/91/51 92/92/52 89/89/49 
f 92/92/52 64/64/24 90/90/50 
f 93/93/53 91/91/51 61/61/21 
f 94/94/54 92/92/52 91/91/51 
f 93/93/53 94/94/54 91/91/51 
f 94/94/54 64/64/24 92/92/52 
f 95/95/55 93/93/53 61/61/21 
f 96/96/56 94/94/54 93/93/53 
f 95/95/55 96/96/56 93/93/53 
f 96/96/56 64/64/24 94/94/54 
f 60/60/20 95/95/55 61/61/21 
f 63/63/23 96/96/56 95/95/55 
f 60/60/20 63/63/23 95/95/55 
f 63/63/23 64/64/24 96/96/56 
f 97/97/60 98/98/20 99/99/21 
f 100/100/22 101/101/23 98/98/20 
f 97/97/60 100/100/22 98/98/20 
f 100/100/22 102/102/24 101/101/23 
f 103/103/25 97/97/60 99/99/21 
f 104/104/26 100/100/22 97/97/60 
f 103/103/25 104/104/26 97/97/60 
f 104/104/26 102/102/24 100/100/22 
f 105/105/27 103/103/25 99/99/21 
f 106/106/28 104/104/26 103/103/25 
f 105/105/27 106/106/28 103/103/25 
f 106/106/28 102/102/24 104/104/26 
f 107/107/29 105/105/27 99/99/21 
f 108/108/30 106/106/28 105/105/27 
f 107/107/29 108/108/30 105/105/27 
f 108/108/30 102/102/24 106/106/28 
f 109/109/31 107/107/29 99/99/21 
f 110/110/32 108/108/30 107/107/29 
f 109/109/31 110/110/32 107/107/29 
f 110/110/32 102/102/24 108/108/30 
f 111/111/33 109/109/31 99/99/21 
f 112/112/34 110/110/32 109/109/31 
f 111/111/33 112/112/34 109/109/31 
f 112/112/34 102/102/24 110/110/32 
f 113/113/35 111/111/33 99/99/21 
f 114/114/36 112/112/34 111/111/33 
f 113/113/35 114/114/36 111/111/33 
f 114/114/36 102/102/24 112/112/34 
f 115/115/37 113/113/35 99/99/21 
f 116/116/38 114/114/36 113/113/35 
f 115/115/37 116/116/38 113/113/35 
f 116/116/38 102/102/24 114/114/36 
f 117/117/39 115/115/37 99/99/21 
f 118/118/40 116/116/38 115/115/37 
f 117/117/39 118/118/40 115/115/37 
f 118/118/40 102/102/24 116/116/38 
f 119/119/41 117/117/39 99/99/21 
f 120/120/42 118/118/40 117/117/39 
f 119/119/41 120/120/42 117/117/39 
f 120/120/42 102/102/24 118/118/40 
f 121/121/43 119/119/41 99/99/21 
f 122/122/44 120/120/42 119/119/41 
f 121/121/43 122/122/44 119/119/41 
f 122/122/44 102/102/24 120/120/42 
f 123/123/45 121/121/43 99/99/21 
f 124/124/61 122/122/44 121/121/43 
f 123/123/45 124/124/61 121/121/43 
f 124/124/61 102/102/24 122/122/44 
f 125/125/47 123/123/45 99/99/21 
f 126/126/48 124/124/61 123/123/45 
f 125/125/47 126/126/48 123/123/45 
f 126/126/48 102/102/24 124/124/61 
f 127/127/49 125/125/47 99/99/21 
f 128/128/50 126/126/48 125/125/47 
f 127/127/49 128/128/50 125/125/47 
f 128/128/50 102/102/24 126/126/48 
f 129/129/51 127/127/49 99/99/21 
f 130/130/52 128/128/50 127/127/49 
f 129/129/51 130/130/52 127/127/49 
f 130/130/52 102/102/24 128/128/50 
f 131/131/53 129/129/51 99/99/21 
f 132/132/54 130/130/52 129/129/51 
f 131/131/53 132/132/54 129/129/51 
f 132/132/54 102/102/24 130/130/52 
f 133/133/55 131/131/53 99/99/21 
f 134/134/56 132/132/54 131/131/53 
f 133/133/55 134/134/56 131/131/53 
f 134/134/56 102/102/24 132/132/54 
f 98/98/20 133/133/55 99/99/21 
f 101/101/23 134/134/56 133/133/55 
f 98/98/20 101/101/23 133/133/55 
f 101/101/23 102/102/24 134/134/56 
f 135/135/60 136/136/20 137/137/21 
f 138/138/22 139/139/23 136/136/20 
f 135/135/60 138/138/22 136/136/20 
f 138/138/22 140/140/24 139/139/23 
f 141/141/25 135/135/60 137/137/21 
f 142/142/26 138/138/22 135/135/60 
f 141/141/25 142/142/26 135/135/60 
f 142/142/26 140/140/24 138/138/22 
f 143/143/27 141/141/25 137/137/21 
f 144/144/28 142/142/26 141/141/25 
f 143/143/27 144/144/28 141/141/25 
f 144/144/28 140/140/24 142/142/26 
f 145/145/29 143/143/27 137/137/21 
f 146/146/30 144/144/28 143/143/27 
f 145/145/29 146/146/30 143/143/27 
f 146/146/30 140/140/24 144/144/28 
f 147/147/31 145/145/29 137/137/21 
f 148/148/32 146/146/30 145/145/29 
f 147/147/31 148/148/32 145/145/29 
f 148/148/32 140/140/24 146/146/30 
f 149/149/33 147/147/31 137/137/21 
f 150/150/34 148/148/32 147/147/31 
f 149/149/33 150/150/34 147/147/31 
f 150/150/34 140/140/24 148/148/32 
f 151/151/35 149/149/33 137/137/21 
f 152/152/36 150/150/34 149/149/33 
f 151/151/35 152/152/36 149/149/33 
f 152/152/36 140/140/24 150/150/34 
f 153/153/37 151/151/35 137/137/21 
f 154/154/38 152/152/36 151/151/35 
f 153/153/37 154/154/38 151/151/35 
f 154/154/38 140/140/24 152/152/36 
f 155/155/39 153/153/37 137/137/21 
f 156/156/40 154/154/38 153/153/37 
f 155/155/39 156/156/40 153/153/37 
f 156/156/40 140/140/24 154/154/38 
f 157/157/41 155/155/39 137/137/21 
f 158/158/42 156/156/40 155/155/39 
f 157/157/41 158/158/42 155/155/39 
f 158/158/42 140/140/24 156/156/40 
f 159/159/43 157/157/41 137/137/21 
f 160/160/44 158/158/42 157/157/41 
f 159/159/43 160/160/44 157/157/41 
f 160/160/44 140/140/24 158/158/42 
f 161/161/45 159/159/43 137/137/21 
f 162/162/46 160/160/44 159/159/43 
f 161/161/45 162/162/46 159/159/43 
f 162/162/46 140/140/24 160/160/44 
f 163/163/47 161/161/45 137/137/21 
f 164/164/48 162/162/46 161/161/45 
f 163/163/47 164/164/48 161/161/45 
f 164/164/48 140/140/24 162/162/46 
f 165/165/49 163/163/47 137/137/21 
f 166/166/50 164/164/48 163/163/47 
f 165/165/49 166/166/50 163/163/47 
f 166/166/50 140/140/24 164/164/48 
f 167/167/62 165/165/49 137/137/21 
f 168/168/52 166/166/50 165/165/49 
f 167/167/62 168/168/52 165/165/49 
f 168/168/52 140/140/24 166/166/50 
f 169/169/53 167/167/62 137/137/21 
f 170/170/54 168/168/52 167/167/62 
f 169/169/53 170/170/54 167/167/62 
f 170/170/54 140/140/24 168/168/52 
f 171/171/55 169/169/53 137/137/21 
f 172/172/56 170/170/54 169/169/53 
f 171/171/55 172/172/56 169/169/53 
f 172/172/56 140/140/24 170/170/54 
f 136/136/20 171/171/55 137/137/21 
f 139/139/23 172/172/56 171/171/55 
f 136/136/20 139/139/23 171/171/55 
f 139/139/23 140/140/24 172/172/56 
# 0 polygons - 324 triangles

#
# object Physical_S
#

#
# object Sky_Null
#

#
# object Sun
#

#
# object Moon
#

#
# object Shadow_Pla
#

