# 3ds Max Wavefront OBJ Exporter v0.97b - (c)2007 guruware
# File Created: 13.01.2020 16:57:22

#
# object Cube_003_Cube_001
#

v  -0.9861 -0.6051 1.5828
v  1.1676 1.0060 1.8733
v  0.9861 -0.6051 1.5828
v  -1.1676 1.0060 1.8733
v  -1.1676 1.0060 -1.8653
v  -0.9861 -0.6051 -1.5748
v  0.9150 -0.5374 1.4690
v  1.0777 1.0060 -1.7214
v  0.9150 -0.5374 -1.4610
v  1.0777 1.0060 1.7294
v  -1.0777 1.0060 1.7294
v  -0.9150 -0.5374 1.4690
v  -1.0777 1.0060 -1.7214
v  1.1676 1.0060 -1.8653
v  0.9861 -0.6051 -1.5748
v  -0.9150 -0.5374 -1.4610
# 16 vertices

vn 0.0000 0.0000 1.0000
vn 0.9937 -0.1119 -0.0000
vn 0.9945 0.1048 -0.0000
vn -0.9937 -0.1119 -0.0000
vn -0.9945 0.1048 -0.0000
vn 0.0000 -0.1775 0.9841
vn 0.0000 -1.0000 -0.0000
vn 0.0000 0.1664 -0.9861
vn 0.0000 0.1664 0.9861
vn 0.0000 1.0000 -0.0000
vn 0.0000 0.3048 0.9524
vn 0.0000 -0.1775 -0.9841
# 12 vertex normals

vt 0.0000 0.0000 0.0000
vt 0.2829 0.4543 0.0000
vt 0.2829 0.0000 0.0000
vt 0.5142 0.0353 0.0000
vt 0.5142 0.4190 0.0000
vt 0.9658 0.4193 0.0000
vt 0.9658 0.8387 0.0000
vt 0.7445 0.8070 0.0000
vt 0.7445 0.4510 0.0000
vt 0.5142 0.4543 0.0000
vt 0.5142 0.0000 0.0000
vt 0.7445 0.0353 0.0000
vt 0.7445 0.4190 0.0000
vt 0.9665 0.0000 0.0000
vt 0.9665 0.4193 0.0000
vt 0.7445 0.3877 0.0000
vt 0.7445 0.0317 0.0000
vt 0.2754 0.5831 0.0000
vt 0.2754 0.3837 0.0000
vt 0.5143 0.7381 0.0000
vt 0.5143 0.4543 0.0000
vt 0.7426 0.4764 0.0000
vt 0.7426 0.7160 0.0000
vt 0.2829 0.3837 0.0000
vt 0.0000 0.3837 0.0000
vt 0.7274 0.7381 0.0000
vt 0.7274 1.0000 0.0000
vt 0.5062 0.9802 0.0000
vt 0.5062 0.7578 0.0000
vt 0.2829 1.0000 0.0000
vt 0.2829 0.7381 0.0000
vt 0.2625 0.7397 0.0000
vt 0.0000 0.7397 0.0000
vt 0.2625 0.3837 0.0000
vt 0.2754 0.4043 0.0000
vt 0.2754 0.8380 0.0000
vt 0.2625 0.8205 0.0000
vt 0.2625 0.4012 0.0000
vt 0.9794 0.4543 0.0000
vt 0.9665 0.4368 0.0000
vt 0.9665 0.0175 0.0000
vt 0.9794 0.0000 0.0000
vt 1.0000 0.0109 0.0000
vt 1.0000 0.2728 0.0000
vt 0.9794 0.2838 0.0000
vt 0.9665 0.4543 0.0000
vt 0.9871 0.4652 0.0000
vt 0.9871 0.7272 0.0000
vt 0.9665 0.7381 0.0000
vt 0.2829 0.5824 0.0000
vt 0.2829 0.7160 0.0000
vt 0.2829 0.4764 0.0000
# 52 texture coords

o Cube_003_Cube_001
g Cube_003_Cube_001
s off
f 1/1/1 1/1/1 1/1/1 
f 1/1/1 1/1/1 1/1/1 
f 2/1/1 3/1/1 3/1/1 
f 3/1/1 2/1/1 2/1/1 
f 4/1/1 1/1/1 1/1/1 
f 1/1/1 4/1/1 4/1/1 
f 5/1/1 6/1/1 6/1/1 
f 6/1/1 5/1/1 5/1/1 
f 6/1/1 6/1/1 6/1/1 
f 6/1/1 6/1/1 6/1/1 
f 7/1/1 7/1/1 7/1/1 
f 7/1/1 7/1/1 7/1/1 
f 8/1/1 9/1/1 9/1/1 
f 9/1/1 8/1/1 8/1/1 
f 10/1/1 7/1/1 7/1/1 
f 7/1/1 10/1/1 10/1/1 
f 11/1/1 12/1/1 12/1/1 
f 12/1/1 11/1/1 11/1/1 
f 9/1/1 8/1/1 8/1/1 
f 8/1/1 9/1/1 9/1/1 
f 8/1/1 8/1/1 8/1/1 
f 8/1/1 8/1/1 8/1/1 
f 13/1/1 13/1/1 13/1/1 
f 13/1/1 13/1/1 13/1/1 
f 10/1/1 10/1/1 10/1/1 
f 10/1/1 10/1/1 10/1/1 
f 11/1/1 11/1/1 11/1/1 
f 11/1/1 11/1/1 11/1/1 
f 3/1/1 3/1/1 3/1/1 
f 3/1/1 3/1/1 3/1/1 
f 1/1/1 1/1/1 1/1/1 
f 1/1/1 1/1/1 1/1/1 
f 6/1/1 6/1/1 6/1/1 
f 6/1/1 6/1/1 6/1/1 
f 6/1/1 6/1/1 6/1/1 
f 6/1/1 6/1/1 6/1/1 
f 1/1/1 6/1/1 6/1/1 
f 6/1/1 1/1/1 1/1/1 
f 14/2/2 2/3/2 3/4/2 
f 3/4/2 15/5/2 14/2/2 
f 4/1/1 1/1/1 1/1/1 
f 1/1/1 4/1/1 4/1/1 
f 7/1/1 9/1/1 9/1/1 
f 9/1/1 7/1/1 7/1/1 
f 10/1/1 7/1/1 7/1/1 
f 7/1/1 10/1/1 10/1/1 
f 13/6/3 11/7/3 12/8/3 
f 12/8/3 16/9/3 13/6/3 
f 10/1/1 10/1/1 10/1/1 
f 10/1/1 10/1/1 10/1/1 
f 11/1/1 13/1/1 13/1/1 
f 13/1/1 11/1/1 11/1/1 
f 3/1/1 3/1/1 15/1/1 
f 15/1/1 15/1/1 3/1/1 
f 1/1/1 1/1/1 1/1/1 
f 1/1/1 1/1/1 1/1/1 
f 4/10/4 5/11/4 6/12/4 
f 6/12/4 1/13/4 4/10/4 
f 10/14/5 8/15/5 9/16/5 
f 9/16/5 7/17/5 10/14/5 
f 8/1/1 10/1/1 10/1/1 
f 10/1/1 8/1/1 8/1/1 
f 6/1/1 6/1/1 1/1/1 
f 1/1/1 1/1/1 6/1/1 
f 6/1/1 6/1/1 6/1/1 
f 6/1/1 6/1/1 6/1/1 
f 14/18/1 15/19/1 15/19/1 
f 15/19/1 14/18/1 14/18/1 
f 9/1/1 9/1/1 9/1/1 
f 9/1/1 9/1/1 9/1/1 
f 13/1/1 16/1/1 16/1/1 
f 16/1/1 13/1/1 13/1/1 
f 13/1/1 13/1/1 13/1/1 
f 13/1/1 13/1/1 13/1/1 
f 15/1/1 15/1/1 15/1/1 
f 15/1/1 15/1/1 15/1/1 
f 1/1/1 1/1/1 3/1/1 
f 3/1/1 3/1/1 1/1/1 
f 2/20/6 4/21/6 1/22/6 
f 1/22/6 3/23/6 2/20/6 
f 6/1/1 6/1/1 15/1/1 
f 15/1/1 15/1/1 6/1/1 
f 12/1/1 12/1/1 12/1/1 
f 12/1/1 12/1/1 12/1/1 
f 11/1/1 12/1/1 12/1/1 
f 12/1/1 11/1/1 11/1/1 
f 16/1/1 13/1/1 13/1/1 
f 13/1/1 16/1/1 16/1/1 
f 13/1/1 8/1/1 8/1/1 
f 8/1/1 13/1/1 13/1/1 
f 11/1/1 11/1/1 11/1/1 
f 11/1/1 11/1/1 11/1/1 
f 1/1/1 1/1/1 3/1/1 
f 3/1/1 3/1/1 1/1/1 
f 6/1/1 6/1/1 15/1/1 
f 15/1/1 15/1/1 6/1/1 
f 3/24/7 1/25/7 6/1/7 
f 6/1/7 15/3/7 3/24/7 
f 12/1/1 16/1/1 16/1/1 
f 16/1/1 12/1/1 12/1/1 
f 6/1/1 6/1/1 15/1/1 
f 15/1/1 15/1/1 6/1/1 
f 16/1/1 16/1/1 16/1/1 
f 16/1/1 16/1/1 16/1/1 
f 7/1/1 7/1/1 12/1/1 
f 12/1/1 12/1/1 7/1/1 
f 11/26/8 10/27/8 7/28/8 
f 7/28/8 12/29/8 11/26/8 
f 16/29/9 9/28/9 8/30/9 
f 8/30/9 13/31/9 16/29/9 
f 10/1/1 11/1/1 11/1/1 
f 11/1/1 10/1/1 10/1/1 
f 12/32/10 7/33/10 9/25/10 
f 9/25/10 16/34/10 12/32/10 
f 9/1/1 9/1/1 16/1/1 
f 16/1/1 16/1/1 9/1/1 
f 3/1/1 3/1/1 3/1/1 
f 3/1/1 3/1/1 3/1/1 
f 2/1/1 3/1/1 3/1/1 
f 3/1/1 2/1/1 2/1/1 
f 15/1/1 15/1/1 15/1/1 
f 15/1/1 15/1/1 15/1/1 
f 8/1/1 8/1/1 8/1/1 
f 8/1/1 8/1/1 8/1/1 
f 3/1/1 3/1/1 3/1/1 
f 3/1/1 3/1/1 3/1/1 
f 15/1/1 15/1/1 15/1/1 
f 15/1/1 15/1/1 15/1/1 
f 3/1/1 15/1/1 15/1/1 
f 15/1/1 3/1/1 3/1/1 
f 15/1/1 15/1/1 15/1/1 
f 15/1/1 15/1/1 15/1/1 
f 8/19/1 8/19/1 14/35/1 
f 14/35/1 14/35/1 8/19/1 
f 13/35/7 13/35/7 5/19/7 
f 5/19/7 5/19/7 13/35/7 
f 10/1/1 10/1/1 2/1/1 
f 2/1/1 2/1/1 10/1/1 
f 11/1/1 11/1/1 4/1/1 
f 4/1/1 4/1/1 11/1/1 
f 10/1/1 10/1/1 2/1/1 
f 2/1/1 2/1/1 10/1/1 
f 4/36/10 11/37/10 13/38/10 
f 13/38/10 5/19/10 4/36/10 
f 14/39/10 8/40/10 10/41/10 
f 10/41/10 2/42/10 14/39/10 
f 13/1/1 13/1/1 5/1/1 
f 5/1/1 5/1/1 13/1/1 
f 5/42/10 13/43/10 8/44/10 
f 8/44/10 14/45/10 5/42/10 
f 11/1/1 11/1/1 4/1/1 
f 4/1/1 4/1/1 11/1/1 
f 2/46/10 10/47/10 11/48/10 
f 11/48/10 4/49/10 2/46/10 
f 8/1/1 8/1/1 14/1/1 
f 14/1/1 14/1/1 8/1/1 
f 14/1/1 14/1/1 14/1/1 
f 14/1/1 14/1/1 14/1/1 
f 5/1/1 5/1/1 5/1/1 
f 5/1/1 5/1/1 5/1/1 
f 2/1/1 2/1/1 2/1/1 
f 2/1/1 2/1/1 2/1/1 
f 4/1/1 4/1/1 4/1/1 
f 4/1/1 4/1/1 4/1/1 
f 2/1/1 2/1/1 2/1/1 
f 2/1/1 2/1/1 2/1/1 
f 4/1/1 5/1/1 5/1/1 
f 5/1/1 4/1/1 4/1/1 
f 14/1/1 2/1/1 2/1/1 
f 2/1/1 14/1/1 14/1/1 
f 5/1/1 5/1/1 5/1/1 
f 5/1/1 5/1/1 5/1/1 
f 5/1/1 14/1/1 14/1/1 
f 14/1/1 5/1/1 5/1/1 
f 4/1/1 4/1/1 4/1/1 
f 4/1/1 4/1/1 4/1/1 
f 2/1/1 4/1/1 4/1/1 
f 4/1/1 2/1/1 2/1/1 
f 14/1/1 14/1/1 14/1/1 
f 14/1/1 14/1/1 14/1/1 
f 3/1/1 3/1/1 3/1/1 
f 3/1/1 3/1/1 3/1/1 
f 1/1/1 1/1/1 1/1/1 
f 1/1/1 1/1/1 1/1/1 
f 6/1/1 6/1/1 6/1/1 
f 6/1/1 6/1/1 6/1/1 
f 6/50/11 5/24/11 5/24/11 
f 5/24/11 6/50/11 6/50/11 
f 3/1/1 3/1/1 15/1/1 
f 15/1/1 15/1/1 3/1/1 
f 1/1/1 1/1/1 1/1/1 
f 1/1/1 1/1/1 1/1/1 
f 6/1/1 6/1/1 1/1/1 
f 1/1/1 1/1/1 6/1/1 
f 15/1/1 15/1/1 15/1/1 
f 15/1/1 15/1/1 15/1/1 
f 1/1/1 1/1/1 3/1/1 
f 3/1/1 3/1/1 1/1/1 
f 15/51/12 6/52/12 5/21/12 
f 5/21/12 14/20/12 15/51/12 
f 3/1/1 3/1/1 3/1/1 
f 3/1/1 3/1/1 3/1/1 
f 15/1/1 14/1/1 14/1/1 
f 14/1/1 15/1/1 15/1/1 
# 204 faces

#
# object Plane_003
#

v  -0.5914 1.6621 1.8598
v  -0.5914 1.6621 -1.8518
v  -0.8864 1.3800 -1.8518
v  -0.8864 1.3800 1.8598
v  -1.1813 0.9970 -1.8518
v  -1.1813 0.9970 1.8598
v  -0.2962 1.7843 -1.8518
v  -0.0009 1.8213 -1.8518
v  0.2944 1.7850 -1.8518
v  0.5899 1.6635 -1.8518
v  0.8855 1.3821 -1.8518
v  1.1813 0.9998 -1.8518
v  0.8855 1.3821 1.8598
v  1.1813 0.9998 1.8598
v  -0.2962 1.7843 1.8598
v  -0.0009 1.8213 1.8598
v  0.2944 1.7850 1.8598
v  0.5899 1.6635 1.8598
v  -0.5101 1.5374 1.7262
v  -0.7790 1.2832 1.7216
v  -0.7790 1.2832 -1.7136
v  -0.5101 1.5374 -1.7182
v  -1.0446 0.9972 -1.7514
v  -1.0446 0.9972 1.7594
v  0.5089 1.5386 -1.7182
v  0.2572 1.6428 -1.7161
v  -0.0008 1.6747 -1.7157
v  0.7783 1.2850 -1.7136
v  1.0446 0.9996 -1.7514
v  -0.2587 1.6422 -1.7161
v  1.0446 0.9996 1.7594
v  0.7783 1.2850 1.7216
v  -0.0008 1.6747 1.7237
v  -0.2587 1.6422 1.7241
v  0.5089 1.5386 1.7262
v  0.2572 1.6428 1.7241
# 36 vertices

vn -0.6911 0.7228 -0.0000
vn -0.7923 0.6101 -0.0000
vn 0.0000 0.0000 -1.0000
vn 0.7909 0.6119 -0.0000
vn -0.1242 0.9923 -0.0000
vn 0.3804 0.9248 -0.0000
vn 0.6894 0.7244 -0.0000
vn -0.3825 0.9239 -0.0000
vn 0.1219 0.9925 -0.0000
vn 0.0000 0.0000 1.0000
vn 0.6870 -0.7267 -0.0000
vn 0.7327 -0.6805 -0.0000
vn 0.0001 -0.0690 0.9976
vn -0.7312 -0.6822 -0.0000
vn 0.1250 -0.9922 -0.0000
vn -0.3826 -0.9239 -0.0000
vn -0.6853 -0.7282 -0.0000
vn 0.3847 -0.9230 -0.0000
vn -0.1227 -0.9924 -0.0000
vn 0.0001 -0.0690 -0.9976
vn 0.0011 -1.0000 -0.0000
# 21 vertex normals

vt 0.6457 0.6110 0.0000
vt 0.6457 0.0000 0.0000
vt 0.7138 0.0000 0.0000
vt 0.7138 0.6110 0.0000
vt 0.7926 0.0000 0.0000
vt 0.7926 0.6110 0.0000
vt 0.8662 0.9183 0.0000
vt 0.8191 0.8697 0.0000
vt 0.7987 0.8211 0.0000
vt 0.7926 0.7725 0.0000
vt 0.7987 0.7239 0.0000
vt 0.8191 0.6752 0.0000
vt 0.8662 0.6266 0.0000
vt 0.9301 0.5780 0.0000
vt 0.9301 0.9670 0.0000
vt 0.5526 0.6110 0.0000
vt 0.4738 0.6110 0.0000
vt 0.4738 0.0000 0.0000
vt 0.5526 0.0000 0.0000
vt 0.5946 0.0000 0.0000
vt 0.5946 0.6110 0.0000
vt 0.3547 0.6110 0.0000
vt 0.3547 0.0000 0.0000
vt 0.4057 0.0000 0.0000
vt 0.4057 0.6110 0.0000
vt 0.3127 0.6110 0.0000
vt 0.3127 0.0000 0.0000
vt 0.1375 1.0000 0.0000
vt 0.0736 0.9514 0.0000
vt 0.0265 0.9028 0.0000
vt 0.1375 0.6110 0.0000
vt 0.0736 0.6597 0.0000
vt 0.0061 0.8541 0.0000
vt 0.0000 0.8055 0.0000
vt 0.0061 0.7569 0.0000
vt 0.0265 0.7083 0.0000
vt 0.8740 0.0055 0.0000
vt 0.9356 0.0062 0.0000
vt 0.9356 0.5718 0.0000
vt 0.8740 0.5725 0.0000
vt 1.0000 0.5780 0.0000
vt 1.0000 0.0000 0.0000
vt 0.5755 0.8669 0.0000
vt 0.5580 0.8255 0.0000
vt 0.5526 0.7830 0.0000
vt 0.6179 0.9112 0.0000
vt 0.6659 0.9550 0.0000
vt 0.5580 0.7406 0.0000
vt 0.6659 0.6110 0.0000
vt 0.5755 0.6991 0.0000
vt 0.6179 0.6548 0.0000
vt 0.2302 0.0227 0.0000
vt 0.2946 0.0165 0.0000
vt 0.2946 0.5945 0.0000
vt 0.2302 0.5883 0.0000
vt 0.7926 0.0059 0.0000
vt 0.8300 0.0058 0.0000
vt 0.8300 0.5722 0.0000
vt 0.7926 0.5721 0.0000
vt 0.1686 0.5890 0.0000
vt 0.1246 0.5887 0.0000
vt 0.1246 0.0223 0.0000
vt 0.1686 0.0220 0.0000
vt 0.0872 0.5886 0.0000
vt 0.0872 0.0224 0.0000
vt 0.1429 0.8255 0.0000
vt 0.1375 0.7830 0.0000
vt 0.1429 0.7406 0.0000
vt 0.1604 0.6991 0.0000
vt 0.2028 0.6548 0.0000
vt 0.2508 0.6110 0.0000
vt 0.2508 0.9550 0.0000
vt 0.2028 0.9112 0.0000
vt 0.1604 0.8669 0.0000
vt 0.0181 0.0165 0.0000
vt 0.0181 0.5945 0.0000
vt 0.0000 0.6110 0.0000
vt 0.0000 0.0000 0.0000
# 78 texture coords

o Plane_003
g Plane_003
s off
f 17/53/13 18/54/13 19/55/13 
f 19/55/13 20/56/13 17/53/13 
f 21/57/14 22/58/14 20/56/14 
f 20/56/14 19/55/14 21/57/14 
f 19/59/15 18/60/15 23/61/15 
f 23/61/15 24/62/15 25/63/15 
f 23/61/15 25/63/15 26/64/15 
f 23/61/15 26/64/15 27/65/15 
f 19/59/15 23/61/15 27/65/15 
f 19/59/15 27/65/15 28/66/15 
f 19/59/15 28/66/15 21/67/15 
f 28/68/16 27/69/16 29/70/16 
f 29/70/16 30/71/16 28/68/16 
f 23/72/17 31/73/17 32/68/17 
f 32/68/17 24/71/17 23/72/17 
f 25/74/18 33/75/18 34/76/18 
f 34/76/18 26/77/18 25/74/18 
f 34/76/19 29/70/19 27/69/19 
f 27/69/19 26/77/19 34/76/19 
f 17/53/20 31/73/20 23/72/20 
f 23/72/20 18/54/20 17/53/20 
f 33/75/21 25/74/21 24/78/21 
f 24/78/21 32/79/21 33/75/21 
f 30/80/22 29/81/22 34/82/22 
f 22/83/22 30/80/22 34/82/22 
f 20/84/22 22/83/22 34/82/22 
f 34/82/22 33/85/22 32/86/22 
f 20/84/22 34/82/22 32/86/22 
f 20/84/22 32/86/22 31/87/22 
f 17/88/22 20/84/22 31/87/22 
f 35/89/23 36/90/23 37/91/23 
f 37/91/23 38/92/23 35/89/23 
f 39/93/24 37/91/24 36/90/24 
f 36/90/24 40/94/24 39/93/24 
f 41/95/25 42/96/25 43/97/25 
f 44/98/25 41/95/25 43/97/25 
f 45/99/25 44/98/25 43/97/25 
f 45/99/25 43/97/25 46/100/25 
f 39/101/25 45/99/25 46/100/25 
f 39/101/25 46/100/25 38/102/25 
f 39/101/25 38/102/25 37/103/25 
f 44/104/26 45/105/26 47/106/26 
f 47/106/26 48/107/26 44/104/26 
f 49/108/27 50/109/27 46/110/27 
f 46/110/27 43/111/27 49/108/27 
f 51/112/28 52/113/28 42/114/28 
f 42/114/28 41/115/28 51/112/28 
f 48/107/29 51/112/29 41/115/29 
f 41/115/29 44/104/29 48/107/29 
f 50/109/30 35/89/30 38/92/30 
f 38/92/30 46/110/30 50/109/30 
f 42/114/31 52/113/31 49/116/31 
f 49/116/31 43/117/31 42/114/31 
f 50/118/32 49/119/32 52/120/32 
f 52/120/32 51/121/32 48/122/32 
f 50/118/32 52/120/32 48/122/32 
f 48/122/32 47/123/32 40/124/32 
f 50/118/32 48/122/32 40/124/32 
f 40/124/32 36/125/32 35/126/32 
f 50/118/32 40/124/32 35/126/32 
f 39/127/33 40/128/33 22/129/33 
f 22/129/33 21/130/33 39/127/33 
f 45/105/33 39/127/33 21/130/33 
f 21/130/33 28/79/33 45/105/33 
f 47/106/33 45/105/33 28/79/33 
f 28/79/33 30/78/33 47/106/33 
f 47/106/33 30/78/33 22/129/33 
f 22/129/33 40/128/33 47/106/33 
# 68 faces

