# Blender v2.76 (sub 0) OBJ File: 'chestlx.blend'
# www.blender.org
mtllib chestlx.mtl
o Cube.001_Cube.003
v 0.986135 -0.605105 -1.578791
v 0.986135 -0.605105 1.578791
v -0.986135 -0.605105 1.578791
v -0.986134 -0.605105 -1.578792
v 1.167618 1.005981 -1.869342
v 1.167617 1.005981 1.869345
v -1.167618 1.005981 1.869343
v -1.167617 1.005981 -1.869344
v 0.915041 -0.537436 -1.464971
v 0.915041 -0.537436 1.464971
v -0.915041 -0.537436 1.464971
v -0.915041 -0.537436 -1.464972
v 1.077738 1.005981 -1.725445
v 1.077736 1.005981 1.725447
v -1.077737 1.005981 1.725445
v -1.077737 1.005981 -1.725446
v 0.986135 -0.605105 -1.578791
v 0.986135 -0.605105 1.578791
v -0.986135 -0.605105 1.578791
v -0.986134 -0.605105 -1.578792
v 0.986135 -0.605105 1.578791
v -0.986135 -0.605105 1.578791
v 1.167617 1.005981 1.869345
v -1.167618 1.005981 1.869343
v 0.915041 -0.537436 1.464971
v -0.915041 -0.537436 1.464971
v 1.077736 1.005981 1.725447
v -1.077737 1.005981 1.725445
v 0.986135 -0.605105 1.578791
v -0.986135 -0.605105 1.578791
v -0.986134 -0.605105 -1.578792
v -1.167617 1.005981 -1.869344
v -0.915041 -0.537436 -1.464972
v -1.077737 1.005981 -1.725446
v -0.986134 -0.605105 -1.578792
v 0.986135 -0.605105 -1.578791
v 1.167618 1.005981 -1.869343
v 0.915041 -0.537436 -1.464971
v 1.077738 1.005981 -1.725445
v 0.986135 -0.605105 -1.578791
v -0.986134 -0.605105 -1.578792
v -0.986135 -0.605105 1.578791
v -1.167618 1.005981 -1.869344
v -1.167618 1.005981 1.869343
v -0.915041 -0.537436 -1.464972
v -0.915041 -0.537436 1.464971
v -1.077737 1.005981 -1.725446
v -1.077737 1.005981 1.725445
v -0.986135 -0.605105 1.578791
v -0.986134 -0.605105 -1.578792
v -0.986135 -0.605105 1.578791
v -0.915041 -0.537436 1.464971
v -0.986134 -0.605105 -1.578792
v -0.915041 -0.537436 -1.464972
v 0.915041 -0.537436 1.464971
v 0.915041 -0.537436 -1.464971
v 0.986135 -0.605105 -1.578791
v 0.986135 -0.605105 1.578791
v 1.167618 1.005981 -1.869342
v 1.167617 1.005981 1.869345
v 0.915041 -0.537436 -1.464971
v 0.915041 -0.537436 1.464971
v 1.077738 1.005981 -1.725445
v 1.077736 1.005981 1.725447
v 0.986135 -0.605105 1.578791
v 0.986135 -0.605105 -1.578791
v 0.986135 -0.605105 1.578791
v 0.986135 -0.605105 -1.578791
v 1.077738 1.005981 -1.725445
v 1.077736 1.005981 1.725447
v -1.077737 1.005981 1.725445
v -1.077737 1.005981 -1.725446
v 1.077736 1.005981 1.725447
v -1.077737 1.005981 1.725445
v 1.077738 1.005981 -1.725445
v -1.077737 1.005981 -1.725446
v -1.077737 1.005981 -1.725446
v -1.077737 1.005981 1.725445
v 1.077736 1.005981 1.725447
v 1.077738 1.005981 -1.725445
v 1.167618 1.005981 -1.869342
v 1.167617 1.005981 1.869345
v -1.167618 1.005981 1.869343
v -1.167617 1.005981 -1.869344
v 1.167617 1.005981 1.869345
v -1.167618 1.005981 1.869343
v 1.167618 1.005981 -1.869343
v -1.167617 1.005981 -1.869344
v -1.167618 1.005981 -1.869344
v -1.167618 1.005981 1.869343
v 1.167617 1.005981 1.869345
v 1.167618 1.005981 -1.869342
v 0.986135 -0.605105 -1.578791
v 0.986135 -0.605105 1.578791
v -0.986135 -0.605105 1.578791
v -0.986134 -0.605105 -1.578792
v 0.986135 -0.605105 1.578791
v -0.986135 -0.605105 1.578791
v -0.986134 -0.605105 -1.578792
v 0.986135 -0.605105 -1.578791
v -0.986135 -0.605105 1.578791
v -0.986134 -0.605105 -1.578792
v 0.986135 -0.605105 1.578791
v 0.986135 -0.605105 -1.578791
vt 0.000000 0.000000
vt 0.514160 0.419002
vt 0.282942 0.454309
vt 0.282942 0.000000
vt 0.514160 0.035307
vt 0.744487 0.450989
vt 0.965821 0.419337
vt 0.965821 0.838674
vt 0.744487 0.807023
vt 0.744487 0.419002
vt 0.514160 0.454309
vt 0.514160 0.000000
vt 0.744487 0.035307
vt 0.744487 0.031652
vt 0.966462 0.000000
vt 0.966462 0.419337
vt 0.744487 0.387686
vt 0.275438 0.383696
vt 0.275438 0.583148
vt 0.742589 0.716023
vt 0.514299 0.738076
vt 0.514299 0.454309
vt 0.742589 0.476362
vt 0.282942 0.383696
vt 0.000000 0.383696
vt 0.506169 0.757846
vt 0.727374 0.738076
vt 0.727374 1.000000
vt 0.506169 0.980230
vt 0.282942 0.738076
vt 0.282942 1.000000
vt 0.262544 0.383696
vt 0.262544 0.739729
vt 0.000000 0.739729
vt 0.275438 0.404312
vt 0.275438 0.838004
vt 0.262544 0.820518
vt 0.262544 0.401181
vt 0.979356 0.000000
vt 0.979356 0.454309
vt 0.966462 0.436823
vt 0.966462 0.017486
vt 0.979356 0.283768
vt 1.000000 0.010922
vt 1.000000 0.272846
vt 0.966462 0.738076
vt 0.966462 0.454309
vt 0.987106 0.465231
vt 0.987106 0.727154
vt 0.282942 0.582426
vt 0.282942 0.716023
vt 0.282942 0.476362
vn 0.000000 0.000000 1.000000
vn 0.993700 -0.111900 0.000000
vn 0.994500 0.104800 0.000000
vn -0.993700 -0.111900 -0.000000
vn -0.994500 0.104800 -0.000000
vn -0.992300 0.124000 0.000000
vn -0.000000 -0.177500 0.984100
vn 0.000000 -1.000000 0.000000
vn 0.000000 0.166400 -0.986100
vn -0.000000 0.166400 0.986100
vn 0.000000 1.000000 0.000000
vn 0.000000 0.304800 0.952400
vn 0.000000 -0.177500 -0.984100
usemtl Brown
s off
f 51/1/1 42/1/1 3/1/1 22/1/1
f 97/1/1 23/1/1 6/1/1 94/1/1
f 101/1/1 44/1/1 7/1/1 95/1/1
f 99/1/1 32/1/1 8/1/1 96/1/1
f 50/1/1 41/1/1 4/1/1 20/1/1
f 55/1/1 62/1/1 10/1/1 25/1/1
f 38/1/1 39/1/1 13/1/1 9/1/1
f 62/1/1 64/1/1 14/1/1 10/1/1
f 26/1/1 28/1/1 15/1/1 11/1/1
f 63/1/1 61/1/1 9/1/1 13/1/1
f 75/1/1 69/1/1 13/1/1 39/1/1
f 77/1/1 72/1/1 16/1/1 47/1/1
f 79/1/1 70/1/1 14/1/1 64/1/1
f 74/1/1 71/1/1 15/1/1 28/1/1
f 21/1/1 29/1/1 18/1/1 2/1/1
f 42/1/1 49/1/1 19/1/1 3/1/1
f 31/1/1 35/1/1 20/1/1 4/1/1
f 102/1/1 50/1/1 20/1/1 96/1/1
f 53/1/1 51/1/1 22/1/1 31/1/1
f 100/2/2 37/3/2 23/4/2 97/5/2
f 95/1/1 7/1/1 24/1/1 98/1/1
f 56/1/1 55/1/1 25/1/1 38/1/1
f 10/1/1 14/1/1 27/1/1 25/1/1
f 33/6/3 34/7/3 28/8/3 26/9/3
f 70/1/1 73/1/1 27/1/1 14/1/1
f 76/1/1 74/1/1 28/1/1 34/1/1
f 36/1/1 40/1/1 29/1/1 21/1/1
f 3/1/1 19/1/1 30/1/1 22/1/1
f 98/10/4 24/11/4 32/12/4 99/13/4
f 25/14/5 27/15/5 39/16/5 38/17/5
f 73/1/1 75/1/1 39/1/1 27/1/1
f 22/1/1 30/1/1 35/1/1 31/1/1
f 41/1/1 53/1/1 31/1/1 4/1/1
f 93/18/6 5/19/6 37/19/6 100/18/6
f 61/1/1 56/1/1 38/1/1 9/1/1
f 12/1/1 16/1/1 34/1/1 33/1/1
f 72/1/1 76/1/1 34/1/1 16/1/1
f 1/1/1 17/1/1 40/1/1 36/1/1
f 67/1/1 58/1/1 42/1/1 51/1/1
f 103/20/7 60/21/7 44/22/7 101/23/7
f 66/1/1 57/1/1 41/1/1 50/1/1
f 26/1/1 11/1/1 46/1/1 52/1/1
f 11/1/1 15/1/1 48/1/1 46/1/1
f 16/1/1 12/1/1 45/1/1 47/1/1
f 80/1/1 77/1/1 47/1/1 63/1/1
f 71/1/1 78/1/1 48/1/1 15/1/1
f 58/1/1 65/1/1 49/1/1 42/1/1
f 104/1/1 66/1/1 50/1/1 102/1/1
f 68/4/8 67/24/8 51/25/8 53/1/8
f 33/1/1 26/1/1 52/1/1 54/1/1
f 57/1/1 68/1/1 53/1/1 41/1/1
f 12/1/1 33/1/1 54/1/1 45/1/1
f 52/1/1 46/1/1 62/1/1 55/1/1
f 46/26/9 48/27/9 64/28/9 62/29/9
f 47/30/10 45/26/10 61/29/10 63/31/10
f 78/1/1 79/1/1 64/1/1 48/1/1
f 54/32/11 52/33/11 55/34/11 56/25/11
f 45/1/1 54/1/1 56/1/1 61/1/1
f 21/1/1 2/1/1 58/1/1 67/1/1
f 94/1/1 6/1/1 60/1/1 103/1/1
f 17/1/1 1/1/1 57/1/1 66/1/1
f 69/1/1 80/1/1 63/1/1 13/1/1
f 2/1/1 18/1/1 65/1/1 58/1/1
f 93/1/1 17/1/1 66/1/1 104/1/1
f 36/1/1 21/1/1 67/1/1 68/1/1
f 1/1/1 36/1/1 68/1/1 57/1/1
f 87/35/1 81/35/1 69/18/1 75/18/1
f 89/18/8 84/18/8 72/35/8 77/35/8
f 91/1/1 82/1/1 70/1/1 79/1/1
f 86/1/1 83/1/1 71/1/1 74/1/1
f 82/1/1 85/1/1 73/1/1 70/1/1
f 88/18/11 86/36/11 74/37/11 76/38/11
f 85/39/11 87/40/11 75/41/11 73/42/11
f 84/1/1 88/1/1 76/1/1 72/1/1
f 92/43/11 89/39/11 77/44/11 80/45/11
f 83/1/1 90/1/1 78/1/1 71/1/1
f 90/46/11 91/47/11 79/48/11 78/49/11
f 81/1/1 92/1/1 80/1/1 69/1/1
f 37/1/1 5/1/1 81/1/1 87/1/1
f 43/1/1 8/1/1 84/1/1 89/1/1
f 60/1/1 6/1/1 82/1/1 91/1/1
f 24/1/1 7/1/1 83/1/1 86/1/1
f 6/1/1 23/1/1 85/1/1 82/1/1
f 32/1/1 24/1/1 86/1/1 88/1/1
f 23/1/1 37/1/1 87/1/1 85/1/1
f 8/1/1 32/1/1 88/1/1 84/1/1
f 59/1/1 43/1/1 89/1/1 92/1/1
f 7/1/1 44/1/1 90/1/1 83/1/1
f 44/1/1 60/1/1 91/1/1 90/1/1
f 5/1/1 59/1/1 92/1/1 81/1/1
f 29/1/1 97/1/1 94/1/1 18/1/1
f 49/1/1 101/1/1 95/1/1 19/1/1
f 35/1/1 99/1/1 96/1/1 20/1/1
f 43/24/12 102/50/12 96/50/12 8/24/12
f 40/1/1 100/1/1 97/1/1 29/1/1
f 19/1/1 95/1/1 98/1/1 30/1/1
f 30/1/1 98/1/1 99/1/1 35/1/1
f 17/1/1 93/1/1 100/1/1 40/1/1
f 65/1/1 103/1/1 101/1/1 49/1/1
f 59/21/13 104/51/13 102/52/13 43/22/13
f 18/1/1 94/1/1 103/1/1 65/1/1
f 5/1/1 93/1/1 104/1/1 59/1/1
o Plane.001
v 2.362629 3.045851 1.855769
v 1.181315 0.999754 -1.855769
v 2.362629 3.045851 -1.855769
v 2.484609 1.611361 1.855769
v 2.484609 1.611361 -1.855769
v 2.642679 2.202132 1.855769
v 2.642679 2.202132 -1.855769
v 2.052022 1.179083 -1.855769
v 2.546355 2.598761 1.855769
v 2.546355 2.598761 -1.855769
v 1.660369 1.064188 1.855769
v 1.660369 1.064188 -1.855769
v 2.600564 1.885431 -1.855769
v 2.305236 1.373906 -1.855769
v 1.181315 0.999754 1.855769
v 2.052022 1.179083 1.855769
v 2.600564 1.885431 1.855769
v 2.305236 1.373906 1.855769
v 2.294283 2.927472 1.755436
v 1.249661 1.118133 -1.755437
v 2.294283 2.927472 -1.755437
v 2.357688 1.684639 1.719687
v 2.357688 1.684639 -1.719687
v 2.494044 2.194244 1.722190
v 2.494044 2.194244 -1.722190
v 1.984535 1.311749 -1.722190
v 2.408755 2.554259 1.717630
v 2.408755 2.554259 -1.717630
v 1.630109 1.205604 1.717630
v 1.630109 1.205604 -1.717630
v 2.458776 1.924095 -1.720127
v 2.200857 1.477367 -1.720127
v 1.249661 1.118133 1.755436
v 1.984535 1.311749 1.722190
v 2.458776 1.924095 1.720127
v 2.200857 1.477367 1.720127
vt 0.713784 0.611037
vt 0.645703 0.611037
vt 0.645703 0.000000
vt 0.713784 0.000000
vt 0.792605 0.611037
vt 0.792605 0.000000
vt 0.866182 0.918344
vt 0.819095 0.869723
vt 0.798725 0.821103
vt 0.792605 0.772482
vt 0.798725 0.723862
vt 0.819095 0.675241
vt 0.866182 0.626621
vt 0.930138 0.578001
vt 0.930138 0.966964
vt 0.473817 0.000000
vt 0.552638 0.000000
vt 0.552638 0.611037
vt 0.473817 0.611037
vt 0.594634 0.611037
vt 0.594634 0.000000
vt 0.354667 0.000000
vt 0.405736 0.000000
vt 0.405736 0.611037
vt 0.354667 0.611037
vt 0.312671 0.000000
vt 0.312671 0.611037
vt 0.026490 0.708277
vt 0.073577 0.659657
vt 0.137533 0.611037
vt 0.137533 1.000000
vt 0.073577 0.951380
vt 0.026490 0.902759
vt 0.006120 0.854139
vt 0.000000 0.805518
vt 0.006120 0.756898
vt 0.935586 0.571776
vt 0.874012 0.572527
vt 0.874012 0.005474
vt 0.935586 0.006224
vt 1.000000 0.578001
vt 1.000000 0.000000
vt 0.665882 0.611037
vt 0.665882 0.954992
vt 0.617907 0.911204
vt 0.575502 0.866896
vt 0.558020 0.825476
vt 0.552638 0.783015
vt 0.558020 0.740553
vt 0.575502 0.699133
vt 0.617907 0.654825
vt 0.230167 0.022742
vt 0.294581 0.016518
vt 0.294581 0.594519
vt 0.230167 0.588294
vt 0.830029 0.572187
vt 0.792605 0.572115
vt 0.792605 0.005886
vt 0.830029 0.005813
vt 0.124610 0.022331
vt 0.168593 0.021991
vt 0.168593 0.589045
vt 0.124610 0.588705
vt 0.087186 0.022403
vt 0.087186 0.588633
vt 0.142914 0.825476
vt 0.137533 0.783014
vt 0.142914 0.740553
vt 0.160397 0.699133
vt 0.202801 0.654825
vt 0.250777 0.611037
vt 0.250777 0.954992
vt 0.202801 0.911204
vt 0.160397 0.866896
vt 0.000000 0.611037
vt 0.000000 0.000000
vt 0.018090 0.016518
vt 0.018090 0.594519
vn 0.971800 0.236000 0.000000
vn 0.924900 0.380100 0.000000
vn 0.000000 0.000000 -1.000000
vn 0.133300 -0.991100 0.000000
vn 0.921000 -0.389600 0.000000
vn 0.609800 -0.792600 0.000000
vn 0.281500 -0.959600 0.000000
vn 0.991300 -0.131800 0.000000
vn 0.797900 -0.602800 0.000000
vn -0.000000 0.000000 1.000000
vn -0.973100 -0.230500 0.000000
vn -0.956000 -0.293200 0.000000
vn -0.059700 0.034500 0.997600
vn -0.224100 0.974600 0.000000
vn -0.921300 0.388900 0.000000
vn -0.607900 0.794000 0.000000
vn -0.286900 0.958000 0.000000
vn -0.991600 0.129500 0.000000
vn -0.797500 0.603400 0.000000
vn -0.059700 0.034500 -0.997600
vn -0.866000 0.500000 0.000000
usemtl Brown
s off
f 113/53/14 110/54/14 111/55/14 114/56/14
f 105/57/15 113/53/15 114/56/15 107/58/15
f 114/59/16 111/60/16 117/61/16 109/62/16 118/63/16 112/64/16 116/65/16 106/66/16 107/67/16
f 115/68/17 119/69/17 106/70/17 116/71/17
f 121/72/18 108/70/18 109/69/18 117/73/18
f 122/74/19 120/75/19 112/76/19 118/77/19
f 120/75/20 115/68/20 116/71/20 112/76/20
f 110/54/21 121/72/21 117/73/21 111/55/21
f 108/78/22 122/74/22 118/77/22 109/79/22
f 110/80/23 113/81/23 105/82/23 119/83/23 115/84/23 120/85/23 122/86/23 108/87/23 121/88/23
f 132/89/24 129/90/24 128/91/24 131/92/24
f 125/93/25 132/89/25 131/92/25 123/94/25
f 125/95/26 124/96/26 134/97/26 130/98/26 136/99/26 127/100/26 135/101/26 129/102/26 132/103/26
f 134/104/27 124/105/27 137/106/27 133/107/27
f 135/108/28 127/109/28 126/110/28 139/111/28
f 136/112/29 130/113/29 138/114/29 140/115/29
f 130/113/30 134/104/30 133/107/30 138/114/30
f 129/90/31 135/108/31 139/111/31 128/91/31
f 127/116/32 136/112/32 140/115/32 126/117/32
f 139/118/33 126/119/33 140/120/33 138/121/33 133/122/33 137/123/33 123/124/33 131/125/33 128/126/33
f 105/127/34 107/128/34 125/129/34 123/130/34
f 107/128/34 106/78/34 124/105/34 125/129/34
f 106/78/34 119/79/34 137/106/34 124/105/34
f 119/79/34 105/127/34 123/130/34 137/106/34
